<?xml version="1.0" encoding="UTF-8"?>
<svg version="1.1" xmlns="http://www.w3.org/2000/svg" width="242" height="208">
<path d="M0 0 C79.86 0 159.72 0 242 0 C242 68.64 242 137.28 242 208 C162.14 208 82.28 208 0 208 C0 139.36 0 70.72 0 0 Z " fill="#FEFCFA" transform="translate(0,0)"/>
<path d="M0 0 C3.76224609 1.11473958 5.25775121 1.69709188 7.375 5 C8.08668185 8.93851205 7.93854029 11.97538129 6 15.5 C4.375 17 4.375 17 2.375 17 C2.045 18.98 1.715 20.96 1.375 23 C-17.105 23 -35.585 23 -54.625 23 C-54.625 35.87 -54.625 48.74 -54.625 62 C-42.58317165 61.88133442 -42.58317165 61.88133442 -30.54174805 61.72973633 C-29.03174474 61.72097422 -27.52173435 61.71332963 -26.01171875 61.70703125 C-25.22817017 61.69168335 -24.44462158 61.67633545 -23.6373291 61.66052246 C-18.05530149 61.65782713 -18.05530149 61.65782713 -15.75585938 63.48632812 C-15.38267578 63.98583984 -15.00949219 64.48535156 -14.625 65 C-12.12296352 65.57571496 -12.12296352 65.57571496 -9.4375 65.6875 C-7.849375 65.790625 -6.26125 65.89375 -4.625 66 C-4.625 70.62 -4.625 75.24 -4.625 80 C-18.155 80 -31.685 80 -45.625 80 C-45.625 96.17 -45.625 112.34 -45.625 129 C-54.865 129 -64.105 129 -73.625 129 C-73.955 119.43 -74.285 109.86 -74.625 100 C-77.5021875 103.465 -77.5021875 103.465 -80.4375 107 C-90.35428664 118.59787293 -101.39319529 126.26739416 -116.625 129 C-120.46137974 129.25852941 -124.28138522 129.23381325 -128.125 129.1953125 C-129.20128662 129.1924826 -130.27757324 129.18965271 -131.38647461 129.18673706 C-134.79943299 129.17560731 -138.2121219 129.15051595 -141.625 129.125 C-143.94921494 129.11496089 -146.27343402 129.10583667 -148.59765625 129.09765625 C-154.27352831 129.0756916 -159.94924489 129.04228625 -165.625 129 C-165.955 129.99 -166.285 130.98 -166.625 132 C-169.85438367 133.61469184 -173.13356753 133.58079278 -176.625 133 C-179.625 130.9375 -179.625 130.9375 -181.625 128 C-182.16718777 124.13691213 -182.17558839 121.97604306 -180.25 118.5625 C-178.625 117 -178.625 117 -176.625 117 C-176.955 116.01 -177.285 115.02 -177.625 114 C-177.71395499 112.50249573 -177.7469808 111.00131793 -177.74525452 109.50117493 C-177.74662918 108.57990814 -177.74800385 107.65864136 -177.74942017 106.7094574 C-177.74582489 105.70101273 -177.74222961 104.69256805 -177.73852539 103.65356445 C-177.73867142 102.58998718 -177.73881744 101.52640991 -177.7389679 100.43060303 C-177.73827012 96.90814183 -177.73048401 93.38573323 -177.72265625 89.86328125 C-177.72079159 87.4237623 -177.71936791 84.98424297 -177.71836853 82.54472351 C-177.71454713 76.11838755 -177.70472004 69.69207412 -177.69366455 63.26574707 C-177.68344233 56.71037094 -177.67886917 50.15499117 -177.67382812 43.59960938 C-177.66309746 30.73306329 -177.64621728 17.86653284 -177.625 5 C-170.02656309 4.92996906 -162.42816036 4.87692271 -154.82947254 4.84456348 C-151.29969051 4.82901941 -147.77013198 4.80799213 -144.24047852 4.77368164 C-140.16680972 4.73433842 -136.09336944 4.72019801 -132.01953125 4.70703125 C-130.7742012 4.69154739 -129.52887115 4.67606354 -128.24580383 4.66011047 C-108.55106303 4.65639238 -95.51274977 10.94689556 -81.80078125 24.55859375 C-79.17077958 27.50967283 -76.92260278 30.7833561 -74.625 34 C-74.295 24.43 -73.965 14.86 -73.625 5 C-66.79941406 4.96132813 -66.79941406 4.96132813 -59.8359375 4.921875 C-56.94655888 4.89669689 -54.05728394 4.87035692 -51.16796875 4.83984375 C-46.58577125 4.79156285 -42.00381387 4.74749823 -37.42138672 4.72900391 C-33.72525822 4.7138167 -30.02975949 4.67933596 -26.3339119 4.63169098 C-24.92663687 4.61689819 -23.51927192 4.60896019 -22.1119194 4.60811615 C-20.1348897 4.60573879 -18.15794925 4.57633054 -16.18115234 4.54589844 C-15.05752289 4.53701599 -13.93389343 4.52813354 -12.7762146 4.51898193 C-7.66587442 3.67734639 -5.24172539 0 0 0 Z " fill="#FCF9F6" transform="translate(215.625,16)"/>
<path d="M0 0 C4.31236921 -0.08789715 8.6245045 -0.1406923 12.9375 -0.1875 C14.14986328 -0.21263672 15.36222656 -0.23777344 16.61132812 -0.26367188 C26.10072224 -0.34082142 34.05213012 0.41448844 41.203125 7.08984375 C44.15121126 10.22378762 46.84005571 13.54404104 49.5078125 16.91796875 C51.31382224 19.15141966 53.13547475 21.29498758 55.0546875 23.42578125 C55.81990723 24.28707642 55.81990723 24.28707642 56.60058594 25.16577148 C57.6000555 26.28641312 58.61084281 27.39708448 59.63378906 28.49633789 C61.66729675 30.80264201 62.9605552 32.3439707 63.1484375 35.46875 C61.52634883 39.04396585 59.11114997 41.74760109 56.5 44.625 C55.40373754 45.86351303 54.30869817 47.10310967 53.21484375 48.34375 C52.39862549 49.26414062 52.39862549 49.26414062 51.56591797 50.203125 C48.60260848 53.6034926 45.82805635 57.15441026 43.03515625 60.6953125 C38.61727262 65.69829012 34.34404333 68.77755809 27.58666992 69.22705078 C26.31412354 69.21657715 25.04157715 69.20610352 23.73046875 69.1953125 C23.04946609 69.1924826 22.36846344 69.18965271 21.66682434 69.18673706 C19.50686545 69.17560525 17.34733206 69.15051457 15.1875 69.125 C13.71680289 69.11496111 12.24609924 69.10583685 10.77539062 69.09765625 C7.18345714 69.07568913 3.59177015 69.0412082 0 69 C-1.52158602 45.95884024 -1.05509947 23.05504583 0 0 Z " fill="#FDFCF9" transform="translate(68,48)"/>
<path d="M0 0 C3.76224609 1.11473958 5.25775121 1.69709188 7.375 5 C8.07976018 9.93332128 8.14541398 11.84437903 5.375 16 C1.25544169 18.74637221 -0.74054047 18.63025284 -5.625 18 C-6.0868721 17.50360519 -6.5487442 17.00721039 -7.02461243 16.49577332 C-9.3228116 14.347803 -10.99906868 14.60253855 -14.10620117 14.56762695 C-15.78760445 14.53793571 -15.78760445 14.53793571 -17.50297546 14.50764465 C-18.71242325 14.50125473 -19.92187103 14.49486481 -21.16796875 14.48828125 C-22.40670242 14.47033005 -23.6454361 14.45237885 -24.92170715 14.43388367 C-28.2112946 14.38884923 -31.50068459 14.3565735 -34.79046631 14.33044434 C-38.14885921 14.30064061 -41.50702044 14.25427124 -44.86523438 14.20898438 C-51.45184196 14.12138025 -58.03788805 14.06144299 -64.625 14 C-64.625 28.85 -64.625 43.7 -64.625 59 C-68.40671882 55.97462494 -70.79257103 53.79525677 -73.6875 50.125 C-77.8153223 44.97386496 -82.06459064 39.94656869 -86.37524414 34.94775391 C-86.85469482 34.3913623 -87.33414551 33.8349707 -87.828125 33.26171875 C-88.29831055 32.71926514 -88.76849609 32.17681152 -89.25292969 31.61791992 C-90.15935432 30.54908076 -91.04611517 29.46321406 -91.91113281 28.3605957 C-94.58828211 24.96481555 -97.04752002 22.81017596 -100.875 20.8125 C-101.74640625 20.34457031 -102.6178125 19.87664063 -103.515625 19.39453125 C-111.84817007 15.6574476 -118.95615006 14.54077086 -128.09765625 14.48828125 C-129.2613121 14.47033005 -130.42496796 14.45237885 -131.62388611 14.43388367 C-135.31172142 14.38004383 -138.99942924 14.34596881 -142.6875 14.3125 C-145.19988743 14.27930378 -147.71225809 14.24481201 -150.22460938 14.20898438 C-156.35795853 14.12433248 -162.49132474 14.05587186 -168.625 14 C-168.46234146 14.96821182 -168.29968292 15.93642365 -168.13209534 16.93397522 C-167.50995149 21.31675815 -167.4920097 25.63639046 -167.51147461 30.05639648 C-167.51132858 30.93524002 -167.51118256 31.81408356 -167.5110321 32.71955872 C-167.51172473 35.60342947 -167.51948652 38.48723438 -167.52734375 41.37109375 C-167.52921024 43.37891098 -167.53063305 45.38672866 -167.53163147 47.39454651 C-167.53543845 52.6634549 -167.54525312 57.93233547 -167.55633545 63.20123291 C-167.56658877 68.58402124 -167.57113748 73.96681409 -167.57617188 79.34960938 C-167.58687709 89.89975177 -167.60393156 100.44987357 -167.625 111 C-170.925 111 -174.225 111 -177.625 111 C-177.625 76.02 -177.625 41.04 -177.625 5 C-163.1771875 4.9071875 -163.1771875 4.9071875 -148.4375 4.8125 C-143.91639526 4.77153198 -143.91639526 4.77153198 -139.30395508 4.72973633 C-136.87581786 4.7209625 -134.44767618 4.71332069 -132.01953125 4.70703125 C-130.79053101 4.69168335 -129.56153076 4.67633545 -128.29528809 4.66052246 C-108.57822056 4.65464671 -95.53045206 10.92932273 -81.80078125 24.55859375 C-79.17077958 27.50967283 -76.92260278 30.7833561 -74.625 34 C-74.295 24.43 -73.965 14.86 -73.625 5 C-66.79941406 4.96132813 -66.79941406 4.96132813 -59.8359375 4.921875 C-56.94655888 4.89669689 -54.05728394 4.87035692 -51.16796875 4.83984375 C-46.58577125 4.79156285 -42.00381387 4.74749823 -37.42138672 4.72900391 C-33.72525822 4.7138167 -30.02975949 4.67933596 -26.3339119 4.63169098 C-24.92663687 4.61689819 -23.51927192 4.60896019 -22.1119194 4.60811615 C-20.1348897 4.60573879 -18.15794925 4.57633054 -16.18115234 4.54589844 C-15.05752289 4.53701599 -13.93389343 4.52813354 -12.7762146 4.51898193 C-7.66587442 3.67734639 -5.24172539 0 0 0 Z " fill="#8895A8" transform="translate(215.625,16)"/>
<path d="M0 0 C16.5 0 33 0 50 0 C50 2.97 50 5.94 50 9 C36.47 9 22.94 9 9 9 C9 25.17 9 41.34 9 58 C-0.24 58 -9.48 58 -19 58 C-19.33 48.43 -19.66 38.86 -20 29 C-22.8771875 32.465 -22.8771875 32.465 -25.8125 36 C-35.72928664 47.59787293 -46.76819529 55.26739416 -62 58 C-65.83637974 58.25852941 -69.65638522 58.23381325 -73.5 58.1953125 C-74.57628662 58.1924826 -75.65257324 58.18965271 -76.76147461 58.18673706 C-80.17443299 58.17560731 -83.5871219 58.15051595 -87 58.125 C-89.32421494 58.11496089 -91.64843402 58.10583667 -93.97265625 58.09765625 C-99.64852831 58.0756916 -105.32424489 58.04228625 -111 58 C-111.33 58.99 -111.66 59.98 -112 61 C-115.22938367 62.61469184 -118.50856753 62.58079278 -122 62 C-125 59.9375 -125 59.9375 -127 57 C-127.7878128 52.5882483 -127.52975133 50.77807226 -125 47.0625 C-120.89979388 44.24360829 -118.90487343 44.44622397 -114 45 C-113.01 45.66 -112.02 46.32 -111 47 C-111 47.66 -111 48.32 -111 49 C-104.20440649 48.93262356 -97.40937136 48.84267244 -90.61425781 48.73754883 C-88.30605726 48.70444072 -85.9977785 48.67636556 -83.68945312 48.65356445 C-80.35773611 48.61975817 -77.02672682 48.56742933 -73.6953125 48.51171875 C-72.67511017 48.50532883 -71.65490784 48.4989389 -70.60379028 48.49235535 C-58.70505279 48.25208732 -48.02842866 44.91093305 -39.39453125 36.4453125 C-36.86377415 33.68100596 -34.42052917 30.86099962 -32 28 C-30.85517972 26.72825399 -29.70944409 25.45733095 -28.5625 24.1875 C-26.37596491 21.68860276 -24.30142449 19.1218209 -22.265625 16.5 C-21.77892334 15.87327393 -21.29222168 15.24654785 -20.79077148 14.60083008 C-19.82401718 13.34955783 -18.86236219 12.09432483 -17.90649414 10.8347168 C-15.42831687 7.61661193 -13.30007719 5.47505789 -10 3 C-10 18.18 -10 33.36 -10 49 C-6.7 49 -3.4 49 0 49 C0 32.83 0 16.66 0 0 Z " fill="#B198D8" transform="translate(161,87)"/>
<path d="M0 0 C47.39393939 0 47.39393939 0 58 10 C63.84958785 15.89307921 68.96624058 22.37784722 74.02758789 28.94482422 C77.13079362 32.96047744 80.38527703 36.73461571 83.953125 40.3515625 C85 42 85 42 84.9296875 43.875 C81.82407919 50.97353329 75.38373922 56.99510109 69.43359375 61.8046875 C66.82729955 63.97778294 65.30617816 66.11731076 64.19921875 69.30859375 C60.87168774 76.77657051 53.9368004 81.98912814 46.5625 85.0625 C44.71890628 85.73792351 42.86604802 86.38934502 41 87 C40.01 87.33 39.02 87.66 38 88 C25.46 88 12.92 88 0 88 C0 58.96 0 29.92 0 0 Z M10 9 C8.94490053 32.05504583 8.47841398 54.95884024 10 78 C14.26832981 78.09965569 18.53602469 78.17183391 22.80517578 78.21972656 C24.25418917 78.23971295 25.70312325 78.26691197 27.15185547 78.30175781 C36.88580897 78.52984494 44.14880133 78.40823207 51.65234375 71.58984375 C52.40644531 70.71457031 53.16054687 69.83929688 53.9375 68.9375 C54.77539062 67.97328125 55.61328125 67.0090625 56.4765625 66.015625 C59.68522304 62.18112665 62.88619294 58.34414985 66.01171875 54.44140625 C67.65429514 52.42449025 69.35708835 50.52927949 71.125 48.625 C73.21683148 46.23672827 73.21683148 46.23672827 72.9921875 43.78125 C71.53770501 39.70411798 68.89363745 37.03838674 66 33.875 C64.80701672 32.54307751 63.61561855 31.20973362 62.42578125 29.875 C61.54720459 28.89273438 61.54720459 28.89273438 60.65087891 27.890625 C58.38659951 25.29751946 56.29762784 22.59488457 54.1875 19.875 C49.34005203 13.89796323 44.6495979 10.25443999 37 9 C34.86971994 8.9206075 32.73720378 8.89224074 30.60546875 8.90234375 C28.80239258 8.90717773 28.80239258 8.90717773 26.96289062 8.91210938 C25.71701172 8.92048828 24.47113281 8.92886719 23.1875 8.9375 C21.92228516 8.94201172 20.65707031 8.94652344 19.35351562 8.95117188 C16.2356289 8.96293749 13.11783867 8.97937728 10 9 Z " fill="#C2C7CC" transform="translate(58,39)"/>
<path d="M0 0 C19.14 0 38.28 0 58 0 C58 2.97 58 5.94 58 9 C41.83 9 25.66 9 9 9 C9 15.93 9 22.86 9 30 C12.93357005 29.92597435 16.86539381 29.84313443 20.7980957 29.73754883 C22.7929063 29.68798681 24.78807257 29.65348867 26.78320312 29.61914062 C28.03681641 29.58369141 29.29042969 29.54824219 30.58203125 29.51171875 C31.73936768 29.48553467 32.8967041 29.45935059 34.08911133 29.43237305 C37.32185985 28.95219208 37.9454766 28.38845526 40 26 C43.93420258 24.98002155 46.08706242 24.57396246 49.8125 26.3125 C52 28 52 28 54 30 C54.43615842 34.43427726 54.48117976 36.95015326 52.625 41 C49.13712872 43.65742574 46.62371798 43.52028533 42.33984375 43.46875 C40 43 40 43 38.87792969 41.50268555 C35.84529438 39.07602534 32.34154397 39.51799081 28.61328125 39.48828125 C27.88894897 39.47164429 27.1646167 39.45500732 26.41833496 39.43786621 C23.7166843 39.38010182 21.01453725 39.34782299 18.3125 39.3125 C9.2478125 39.1578125 9.2478125 39.1578125 0 39 C0 26.13 0 13.26 0 0 Z " fill="#B2B7C1" transform="translate(161,39)"/>
<path d="M0 0 C10.04530483 1.42019827 16.15515924 11.51806264 22 19 C25.26954202 18.43628586 26.82575883 17.50037734 29 15 C29.59167969 15.72445312 30.18335938 16.44890625 30.79296875 17.1953125 C31.58316406 18.16210938 32.37335938 19.12890625 33.1875 20.125 C34.41146484 21.63126953 34.41146484 21.63126953 35.66015625 23.16796875 C37.43514354 25.31632566 39.24878217 27.38056997 41.125 29.4375 C43 32 43 32 42.875 33.82421875 C40.00436734 40.96235442 33.32916831 47.03921152 27.43359375 51.8046875 C24.82729955 53.97778294 23.30617816 56.11731076 22.19921875 59.30859375 C20.77664111 62.50128428 19.05152352 64.48709538 16.625 67 C15.85414062 67.825 15.08328125 68.65 14.2890625 69.5 C3.63570529 78.39837535 -8.70216541 77.61892291 -21.75 77.3125 C-23.62236583 77.28736866 -25.4947644 77.26456409 -27.3671875 77.24414062 C-31.91228031 77.18956767 -36.45577046 77.10356764 -41 77 C-40.93143799 75.9788208 -40.86287598 74.9576416 -40.79223633 73.90551758 C-40.70132344 72.54768955 -40.61042237 71.18986073 -40.51953125 69.83203125 C-40.47445435 69.1611145 -40.42937744 68.49019775 -40.38293457 67.7989502 C-40.18872749 64.89471192 -39.99959335 61.99186637 -39.85424805 59.0847168 C-39.6875 56.6875 -39.6875 56.6875 -39 53 C-36.95703125 51.76953125 -36.95703125 51.76953125 -35 51 C-35.04125 52.216875 -35.0825 53.43375 -35.125 54.6875 C-35.13762182 58.27209633 -34.42810283 60.6975122 -33 64 C-32.96062153 65.6662014 -32.95579223 67.33391973 -33 69 C-28.76712908 69.00538435 -24.53685147 68.97109732 -20.3046875 68.90234375 C-18.86955954 68.88434035 -17.43426053 68.87658645 -15.99902344 68.87988281 C-5.59435651 68.8943942 1.96291717 67.65815955 9.8359375 60.27929688 C11.50527253 58.51808977 13.04153814 56.70280332 14.5625 54.8125 C15.10406738 54.15975098 15.64563477 53.50700195 16.20361328 52.83447266 C17.29291179 51.51913585 18.37671604 50.19922686 19.45458984 48.87451172 C20.88994423 47.13349261 22.36269111 45.43871475 23.86328125 43.75390625 C24.69214844 42.80386719 25.52101563 41.85382813 26.375 40.875 C27.10460937 40.04742187 27.83421875 39.21984375 28.5859375 38.3671875 C30.1820815 36.12124185 30.1820815 36.12124185 30.1015625 33.640625 C28.46909689 29.72733866 25.84134815 26.98125997 23 23.875 C21.80832841 22.54437082 20.6182327 21.21232872 19.4296875 19.87890625 C18.84413086 19.22422363 18.25857422 18.56954102 17.65527344 17.89501953 C15.37024779 15.27903589 13.25767264 12.55398058 11.125 9.8125 C7.77061497 5.64587017 4.87607876 3.17867349 0 1 C0 0.67 0 0.34 0 0 Z " fill="#BEC8D8" transform="translate(100,49)"/>
<path d="M0 0 C2.4375 1.5625 2.4375 1.5625 4 4 C4.80565355 8.04487917 4.63769736 10.97968422 2.4375 14.5 C-0.96381375 16.59311615 -3.07072743 16.55147685 -7 16 C-7.77885056 15.33905334 -8.55770111 14.67810669 -9.3601532 13.99713135 C-12.48875386 11.63024155 -13.92995769 11.5115739 -17.80004883 11.54589844 C-18.94085403 11.54620056 -20.08165924 11.54650269 -21.2570343 11.54681396 C-22.47803329 11.56745911 -23.69903229 11.58810425 -24.95703125 11.609375 C-26.21513107 11.61503479 -27.4732309 11.62069458 -28.76945496 11.62652588 C-32.10222785 11.64509956 -35.43389216 11.68098884 -38.76635742 11.7253418 C-42.1716134 11.76637877 -45.57698764 11.78477443 -48.98242188 11.8046875 C-55.65556959 11.84536502 -62.32678371 11.92366197 -69 12 C-69.33 25.86 -69.66 39.72 -70 54 C-73.61227511 50.38772489 -76.98432263 46.77829838 -80.25 42.875 C-80.72671143 42.31022949 -81.20342285 41.74545898 -81.69458008 41.16357422 C-84.75208597 37.5300165 -87.727714 33.83883893 -90.6875 30.125 C-94.3987407 25.54958953 -98.40035296 21.67219777 -103 18 C-102.34 16.68 -101.68 15.36 -101 14 C-91.06494381 15.51974604 -82.91445791 28.64917374 -77 36 C-76.67 25.77 -76.34 15.54 -76 5 C-55.21 5 -34.42 5 -13 5 C-12.34 3.68 -11.68 2.36 -11 1 C-7.43300025 -1.77433314 -4.20504308 -1.05126077 0 0 Z " fill="#D2B7E5" transform="translate(219,17)"/>
<path d="M0 0 C0.33 0 0.66 0 1 0 C1.33 7.26 1.66 14.52 2 22 C3.98 22 5.96 22 8 22 C8.33 20.02 8.66 18.04 9 16 C9.33 16 9.66 16 10 16 C10 45.7 10 75.4 10 106 C6.7 106 3.4 106 0 106 C0 71.02 0 36.04 0 0 Z " fill="#CBD0D5" transform="translate(38,21)"/>
<path d="M0 0 C16.5 0 33 0 50 0 C50 2.97 50 5.94 50 9 C36.47 9 22.94 9 9 9 C9.020625 12.465 9.04125 15.93 9.0625 19.5 C9.09826533 32.01961055 8.62978169 44.49816349 8 57 C3.85418113 57.02886751 -0.29161216 57.04675327 -4.4375 57.0625 C-5.62150391 57.07087891 -6.80550781 57.07925781 -8.02539062 57.08789062 C-9.15009766 57.09111328 -10.27480469 57.09433594 -11.43359375 57.09765625 C-12.99678345 57.10551147 -12.99678345 57.10551147 -14.59155273 57.11352539 C-17 57 -17 57 -18 56 C-18.08651611 54.58429877 -18.10704904 53.164405 -18.09765625 51.74609375 C-18.09443359 50.89208984 -18.09121094 50.03808594 -18.08789062 49.15820312 C-18.07951172 48.26037109 -18.07113281 47.36253906 -18.0625 46.4375 C-18.05798828 45.53580078 -18.05347656 44.63410156 -18.04882812 43.70507812 C-18.03700225 41.46998686 -18.0205222 39.23502563 -18 37 C-17.34 37 -16.68 37 -16 37 C-15.67 42.94 -15.34 48.88 -15 55 C-9.91449584 54.96060236 -9.91449584 54.96060236 -4.82910156 54.90991211 C-1.37106862 54.89641097 1.678497 55.06623116 5 56 C6.03689017 45.56188837 6.31120698 35.14470324 6.55224609 24.66625977 C6.60391776 22.47400631 6.66108011 20.28194634 6.71875 18.08984375 C6.74904297 16.79941162 6.77933594 15.50897949 6.81054688 14.17944336 C7 11 7 11 8 8 C21.2 8 34.4 8 48 8 C48 6.02 48 4.04 48 2 C32.82 2 17.64 2 2 2 C1.95875 5.939375 1.9175 9.87875 1.875 13.9375 C1.85679199 15.16073975 1.83858398 16.38397949 1.81982422 17.64428711 C1.79096543 23.37927356 2.05779262 28.61489779 3.54858398 34.16699219 C4.57150382 38.32063315 4.04546061 41.94884012 3 46 C2.96213099 47.66623639 2.95372155 49.33397597 3 51 C-2.5415502 52.96263236 -6.20858017 53.01603857 -12 52 C-12.90208123 49.2937563 -13.12227599 47.76149014 -13.11352539 44.98754883 C-13.11344986 44.18694534 -13.11337433 43.38634186 -13.11329651 42.56147766 C-13.10813522 41.70201035 -13.10297394 40.84254303 -13.09765625 39.95703125 C-13.0962413 39.0734343 -13.09482635 38.18983734 -13.09336853 37.27946472 C-13.08777069 34.45710872 -13.07521861 31.63483203 -13.0625 28.8125 C-13.05748472 26.89908969 -13.05292186 24.98567813 -13.04882812 23.07226562 C-13.03780197 18.38147986 -13.02053883 13.69075337 -13 9 C-19.28983459 16.01057814 -19.28983459 16.01057814 -25.3125 23.25 C-25.94800781 24.03890625 -26.58351562 24.8278125 -27.23828125 25.640625 C-29.06002639 27.98398567 -29.06002639 27.98398567 -30.53125 30.65234375 C-32.46704935 33.74653367 -34.90572736 35.14343642 -38 37 C-34.41562198 29.08902428 -27.72003829 22.62211913 -21.953125 16.2421875 C-19.32583949 13.22606373 -16.92673299 10.05809407 -14.54296875 6.84765625 C-13 5 -13 5 -10 3 C-10 18.18 -10 33.36 -10 49 C-6.7 49 -3.4 49 0 49 C0 32.83 0 16.66 0 0 Z " fill="#9F8ACB" transform="translate(161,87)"/>
<path d="M0 0 C21.12 0 42.24 0 64 0 C64 0.33 64 0.66 64 1 C43.21 1 22.42 1 1 1 C1 11.56 1 22.12 1 33 C-2.80999353 29.95200518 -4.96797433 27.98314556 -7.75 24.25 C-11.63242966 19.28461557 -15.82638161 14.65316644 -21 11 C-21.99 11 -22.98 11 -24 11 C-24.33 11.99 -24.66 12.98 -25 14 C-24.29875 14.60585938 -23.5975 15.21171875 -22.875 15.8359375 C-17.48056266 20.60004656 -12.67273994 25.31008702 -8.30664062 31.06396484 C-5.54985804 34.57296858 -2.66110579 37.95043687 0.25390625 41.328125 C0.80792114 41.97217285 1.36193604 42.6162207 1.93273926 43.27978516 C3.28733688 44.85418542 4.64350759 46.42723198 6 48 C6.03758423 46.1902771 6.03758423 46.1902771 6.07592773 44.34399414 C6.16982523 39.88424339 6.27008833 35.42465487 6.37231445 30.96508789 C6.41573041 29.03185815 6.45740042 27.09858841 6.49731445 25.1652832 C6.55485631 22.39261798 6.6185962 19.62015543 6.68359375 16.84765625 C6.70030624 15.97786636 6.71701874 15.10807648 6.73423767 14.21192932 C6.88612829 8.11387171 6.88612829 8.11387171 8 7 C9.75278133 6.88537971 11.51016244 6.8403705 13.26660156 6.82299805 C14.39157043 6.81016281 15.51653931 6.79732758 16.67559814 6.78410339 C17.90155701 6.77671646 19.12751587 6.76932953 20.390625 6.76171875 C21.64252625 6.753647 22.89442749 6.74557526 24.18426514 6.73725891 C26.84081747 6.72339621 29.49724477 6.71238677 32.15380859 6.70483398 C35.55134393 6.69378888 38.94822076 6.65941864 42.34552383 6.61966228 C45.58965896 6.58716975 48.83385194 6.58271386 52.078125 6.57421875 C53.29598694 6.55671066 54.51384888 6.53920258 55.76861572 6.52116394 C56.90619324 6.52408951 58.04377075 6.52701508 59.21582031 6.5300293 C60.21429993 6.52416306 61.21277954 6.51829681 62.24151611 6.51225281 C65.72587556 7.12834723 67.31957073 8.75998204 70 11 C73.70940775 11.33465889 73.70940775 11.33465889 77 11 C76.67 11.66 76.34 12.32 76 13 C70.04296875 13.29296875 70.04296875 13.29296875 68 13 C67.57591354 12.50787521 67.15182709 12.01575043 66.71488953 11.50871277 C64.31686181 9.39899376 62.68311334 9.60318105 59.51879883 9.56762695 C57.83739555 9.53793571 57.83739555 9.53793571 56.12202454 9.50764465 C54.91257675 9.50125473 53.70312897 9.49486481 52.45703125 9.48828125 C51.21829758 9.47033005 49.9795639 9.45237885 48.70329285 9.43388367 C45.4137054 9.38884923 42.12431541 9.3565735 38.83453369 9.33044434 C35.47614079 9.30064061 32.11797956 9.25427124 28.75976562 9.20898438 C22.17315804 9.12138025 15.58711195 9.06144299 9 9 C9 23.85 9 38.7 9 54 C5.21828118 50.97462494 2.83242897 48.79525677 -0.0625 45.125 C-4.1903223 39.97386496 -8.43959064 34.94656869 -12.75024414 29.94775391 C-13.22969482 29.3913623 -13.70914551 28.8349707 -14.203125 28.26171875 C-14.67331055 27.71926514 -15.14349609 27.17681152 -15.62792969 26.61791992 C-16.53435432 25.54908076 -17.42111517 24.46321406 -18.28613281 23.3605957 C-24.22432611 15.82840503 -33.02748503 12.64762737 -42 10 C-42 9.34 -42 8.68 -42 8 C-42.66 8 -43.32 8 -44 8 C-44 7.34 -44 6.68 -44 6 C-31.45242195 2.09800926 -31.45242195 2.09800926 -26.6875 4.4375 C-25.42926845 5.24824334 -24.19930145 6.10438433 -23 7 C-22.35804687 7.42796875 -21.71609375 7.8559375 -21.0546875 8.296875 C-12.91986778 13.97529818 -6.74291566 20.95991808 -1 29 C-0.67 19.43 -0.34 9.86 0 0 Z " fill="#A199B4" transform="translate(142,21)"/>
<path d="M0 0 C-0.04125 1.216875 -0.0825 2.43375 -0.125 3.6875 C-0.13762182 7.27209633 0.57189717 9.6975122 2 13 C2.03937847 14.6662014 2.04420777 16.33391973 2 18 C6.26894664 17.93061428 10.53698767 17.84241008 14.80517578 17.73754883 C16.25396281 17.70451197 17.70287199 17.67641545 19.15185547 17.65356445 C29.0140304 17.49383936 37.43800304 17.29089042 45.5 10.8125 C46.50546875 10.01779297 46.50546875 10.01779297 47.53125 9.20703125 C48.0159375 8.80871094 48.500625 8.41039063 49 8 C49.495 8.99 49.495 8.99 50 10 C51.32 9.67 52.64 9.34 54 9 C52.53949554 12.21310981 50.76222232 14.79275034 48.5 17.5 C47.8915625 18.2528125 47.283125 19.005625 46.65625 19.78125 C36.9763815 27.86678722 25.26450104 26.47129712 13.375 26.25 C11.49350859 26.22990483 9.61199646 26.2116594 7.73046875 26.1953125 C3.15312833 26.15155454 -1.42320419 26.08269402 -6 26 C-5.84127674 23.61066832 -5.68240042 21.22134698 -5.5234375 18.83203125 C-5.47888428 18.1611145 -5.43433105 17.49019775 -5.38842773 16.7989502 C-5.25975534 14.86591314 -5.12989855 12.93295504 -5 11 C-4.94021973 10.03795654 -4.88043945 9.07591309 -4.81884766 8.0847168 C-4.625 5.6875 -4.625 5.6875 -4 2 C-1 0 -1 0 0 0 Z " fill="#596473" transform="translate(65,100)"/>
<path d="M0 0 C15.18 0 30.36 0 46 0 C46 1.98 46 3.96 46 6 C32.8 6 19.6 6 6 6 C5.71184722 17.39711589 5.71184722 17.39711589 5.43188477 28.79443359 C4.8835174 50.23296519 4.8835174 50.23296519 3 54 C1.02 53.67 -0.96 53.34 -3 53 C-2.67 52.01 -2.34 51.02 -2 50 C-1.01 49.505 -1.01 49.505 0 49 C-0.020625 47.700625 -0.04125 46.40125 -0.0625 45.0625 C-0.08399454 43.70834367 -0.07148199 42.35243917 0 41 C0.495 40.505 0.495 40.505 1 40 C0.93360456 38.09435632 0.93360456 38.09435632 0.625 35.875 C0.53476563 35.12992188 0.44453125 34.38484375 0.3515625 33.6171875 C0.09778121 31.72792676 -0.2158399 29.84637296 -0.56640625 27.97265625 C-1.16776617 22.46289918 -0.84734548 17.08760404 -0.5625 11.5625 C-0.376875 7.746875 -0.19125 3.93125 0 0 Z " fill="#B69BDE" transform="translate(163,89)"/>
<path d="M0 0 C6.19532526 5.1117987 14.18943668 12.54487255 16.76953125 20.28515625 C13.76953125 22.28515625 13.76953125 22.28515625 11.7578125 22.1081543 C9.39434349 21.12985689 8.50337992 20.13952858 6.95703125 18.1171875 C6.17779297 17.14749023 6.17779297 17.14749023 5.3828125 16.15820312 C4.32861965 14.81174616 3.28387973 13.45781973 2.25 12.09570312 C-3.3370812 5.21040719 -10.16435487 1.03439335 -19.00585938 -0.27319336 C-23.00387161 -0.52195966 -26.97717117 -0.5994856 -30.98046875 -0.58984375 C-32.37113099 -0.60802234 -33.7617613 -0.62884095 -35.15234375 -0.65234375 C-38.51233323 -0.69901027 -41.87022474 -0.71932408 -45.23046875 -0.71484375 C-45.2147583 0.11764893 -45.19904785 0.9501416 -45.18286133 1.80786133 C-45.13170233 4.89963481 -45.09410395 7.99119243 -45.06567383 11.08325195 C-45.04318542 13.07843326 -45.00506677 15.07341838 -44.96679688 17.06835938 C-44.95229492 18.9487793 -44.95229492 18.9487793 -44.9375 20.8671875 C-44.92178955 22.02452393 -44.9060791 23.18186035 -44.88989258 24.37426758 C-45.23046875 27.28515625 -45.23046875 27.28515625 -46.6237793 29.1862793 C-48.23046875 30.28515625 -48.23046875 30.28515625 -50.23046875 30.28515625 C-50.23046875 19.72515625 -50.23046875 9.16515625 -50.23046875 -1.71484375 C-46.04258157 -3.38999862 -44.57795138 -3.96202069 -40.4296875 -3.875 C-39.53443359 -3.86404297 -38.63917969 -3.85308594 -37.71679688 -3.84179688 C-36.79318359 -3.82052734 -35.86957031 -3.79925781 -34.91796875 -3.77734375 C-5.00280839 -3.20652444 -5.00280839 -3.20652444 0 0 Z " fill="#CCD9E7" transform="translate(111.23046875,46.71484375)"/>
<path d="M0 0 C0.99 0.66 1.98 1.32 3 2 C3 2.66 3 3.32 3 4 C29.73 3.505 29.73 3.505 57 3 C52.98786342 7.01213658 46.72795912 6.12042812 41.35809326 6.13894653 C40.38914124 6.1369223 39.42018921 6.13489807 38.421875 6.1328125 C37.41408997 6.13376923 36.40630493 6.13472595 35.36798096 6.13571167 C33.24662208 6.13639005 31.1252611 6.13455967 29.00390625 6.13037109 C25.74734895 6.12499562 22.49092816 6.13033913 19.234375 6.13671875 C17.17187469 6.13605835 15.10937447 6.13477797 13.046875 6.1328125 C12.06982605 6.13483673 11.0927771 6.13686096 10.08612061 6.13894653 C9.18468323 6.13579437 8.28324585 6.13264221 7.35449219 6.12939453 C6.55984558 6.12859894 5.76519897 6.12780334 4.94647217 6.12698364 C3 6 3 6 1 5 C1 6.65 1 8.3 1 10 C0.01 8.68 -0.98 7.36 -2 6 C-4.44480079 6.18828772 -4.44480079 6.18828772 -7 7 C-8.36020151 8.96758273 -8.36020151 8.96758273 -9 11 C-9.33 10.67 -9.66 10.34 -10 10 C-9.65213292 11.97536745 -9.65213292 11.97536745 -9 14 C-6.15916359 15.42041821 -4.14522722 15.31452272 -1 15 C-0.48840332 14.34467285 0.02319336 13.6893457 0.55029297 13.01416016 C4.42925984 9.82485612 8.44737076 10.43574797 13.3203125 10.4609375 C14.33415009 10.44914459 15.34798767 10.43735168 16.39254761 10.42520142 C19.63685341 10.38990099 22.88051789 10.38077481 26.125 10.375 C29.34786416 10.35858637 32.57044384 10.33633567 35.79318237 10.30337524 C37.79662811 10.28396236 39.80020274 10.2743864 41.80374146 10.27645874 C53.32292529 10.19001388 67.36886298 8.3335116 76 0 C76.99 0.495 76.99 0.495 78 1 C66.86834421 10.32820318 54.78729511 13.3384256 40.5 13.1953125 C39.42371338 13.1924826 38.34742676 13.18965271 37.23852539 13.18673706 C33.82556701 13.17560731 30.4128781 13.15051595 27 13.125 C24.67578506 13.11496089 22.35156598 13.10583667 20.02734375 13.09765625 C14.35147169 13.0756916 8.67575511 13.04228625 3 13 C2.67 13.99 2.34 14.98 2 16 C-1.22938367 17.61469184 -4.50856753 17.58079278 -8 17 C-11 14.9375 -11 14.9375 -13 12 C-13.7878128 7.5882483 -13.52975133 5.77807226 -11 2.0625 C-6.89979388 -0.75639171 -4.90487343 -0.55377603 0 0 Z " fill="#9E8BB7" transform="translate(47,132)"/>
<path d="M0 0 C3.63 0 7.26 0 11 0 C11 0.99 11 1.98 11 3 C11.598125 2.505 12.19625 2.01 12.8125 1.5 C17.48336634 -0.69805475 21.9195716 -0.24023041 27 0 C27 0.99 27 1.98 27 3 C24.36 3 21.72 3 19 3 C19 4.32 19 5.64 19 7 C21.31 7 23.62 7 26 7 C26 7.99 26 8.98 26 10 C24.02 10 22.04 10 20 10 C20 11.98 20 13.96 20 16 C18.68 16 17.36 16 16 16 C16 14.68 16 13.36 16 12 C15.34 12 14.68 12 14 12 C13.67 13.32 13.34 14.64 13 16 C8.71 16 4.42 16 0 16 C0 10.72 0 5.44 0 0 Z " fill="#EDEAE5" transform="translate(94,171)"/>
<path d="M0 0 C2 0.3125 2 0.3125 4 1 C5.7210938 4.44218761 5.39600124 8.39290106 5.5625 12.1875 C5.6049585 13.1055542 5.64741699 14.0236084 5.69116211 14.96948242 C6.13814485 25.64400589 6.09533056 36.31857715 6 47 C3.36 47 0.72 47 -2 47 C-2.14324251 37.03668743 -1.93769314 27.08727409 -1.62667847 17.12921143 C-1.58380339 15.74852394 -1.54257073 14.36778451 -1.50296021 12.98699951 C-1.44584235 11.02373114 -1.38127605 9.06068378 -1.31640625 7.09765625 C-1.27974854 5.94789307 -1.24309082 4.79812988 -1.20532227 3.61352539 C-1 1 -1 1 0 0 Z " fill="#8795A7" transform="translate(41,79)"/>
<path d="M0 0 C1.12496887 -0.01283524 2.24993774 -0.02567047 3.40899658 -0.03889465 C4.63495544 -0.04628159 5.86091431 -0.05366852 7.12402344 -0.0612793 C8.37592468 -0.06935104 9.62782593 -0.07742279 10.91766357 -0.08573914 C13.57421591 -0.09960184 16.23064321 -0.11061128 18.88720703 -0.11816406 C22.28474237 -0.12920917 25.6816192 -0.16357941 29.07892227 -0.20333576 C32.3230574 -0.23582829 35.56725038 -0.24028419 38.81152344 -0.2487793 C40.02938538 -0.26628738 41.24724731 -0.28379547 42.50201416 -0.30183411 C43.63959167 -0.29890854 44.77716919 -0.29598297 45.94921875 -0.29296875 C46.94769836 -0.29883499 47.94617798 -0.30470123 48.97491455 -0.31074524 C52.459274 0.30534918 54.05296917 1.93698399 56.73339844 4.17700195 C60.44280619 4.51166084 60.44280619 4.51166084 63.73339844 4.17700195 C63.40339844 4.83700195 63.07339844 5.49700195 62.73339844 6.17700195 C56.77636719 6.4699707 56.77636719 6.4699707 54.73339844 6.17700195 C54.30931198 5.68487717 53.88522552 5.19275238 53.44828796 4.68571472 C51.05026025 2.57599571 49.41651177 2.780183 46.25219727 2.74462891 C44.57079399 2.71493767 44.57079399 2.71493767 42.85542297 2.68464661 C41.64597519 2.67825668 40.4365274 2.67186676 39.19042969 2.6652832 C37.95169601 2.647332 36.71296234 2.6293808 35.43669128 2.61088562 C32.14710384 2.56585118 28.85771385 2.53357546 25.56793213 2.50744629 C22.20953923 2.47764257 18.85137799 2.43127319 15.49316406 2.38598633 C8.90655648 2.29838221 2.32051038 2.23844494 -4.26660156 2.17700195 C-4.26660156 17.02700195 -4.26660156 31.87700195 -4.26660156 47.17700195 C-8.04832039 44.15162689 -10.43417259 41.97225872 -13.32910156 38.30200195 C-15.98805899 34.97045832 -18.66929873 31.6891278 -21.48144531 28.4855957 C-22.02599365 27.86346191 -22.57054199 27.24132812 -23.1315918 26.6003418 C-24.20516549 25.37848444 -25.28395947 24.16119027 -26.3684082 22.94897461 C-28.89427568 20.06144226 -30.53838948 17.94366879 -31.26660156 14.17700195 C-23.59665343 21.59953241 -16.71784166 29.72954677 -10.01660156 38.0246582 C-8.44482618 40.03296381 -8.44482618 40.03296381 -7.26660156 41.17700195 C-7.24154541 39.97052002 -7.21648926 38.76403809 -7.19067383 37.52099609 C-7.09677634 33.06124535 -6.99651323 28.60165682 -6.89428711 24.14208984 C-6.85087115 22.20886011 -6.80920114 20.27559036 -6.76928711 18.34228516 C-6.71174525 15.56961994 -6.64800536 12.79715739 -6.58300781 10.0246582 C-6.56629532 9.15486832 -6.54958282 8.28507843 -6.53236389 7.38893127 C-6.34988449 0.06280494 -6.34988449 0.06280494 0 0 Z " fill="#B5A2C2" transform="translate(155.2666015625,27.822998046875)"/>
<path d="M0 0 C1.32 0.33 2.64 0.66 4 1 C6.70509329 1.16276911 9.39018654 1.28030331 12.09765625 1.3515625 C12.88716171 1.37471527 13.67666718 1.39786804 14.49009705 1.42172241 C16.16187351 1.46928646 17.8337174 1.51452952 19.50561523 1.55761719 C22.02943667 1.62412867 24.55271557 1.70221447 27.07617188 1.78125 C34.81228873 2.00160092 42.36682615 2.13779466 50.06420898 1.13427734 C52 1 52 1 54 2 C54 2.99 54 3.98 54 5 C38.16 5.33 22.32 5.66 6 6 C5.67 12.93 5.34 19.86 5 27 C3.35 27.33 1.7 27.66 0 28 C0 18.76 0 9.52 0 0 Z " fill="#C9D7E7" transform="translate(163,41)"/>
<path d="M0 0 C12.21 0 24.42 0 37 0 C37 0.33 37 0.66 37 1 C25.12 1 13.24 1 1 1 C1.33 5.29 1.66 9.58 2 14 C1.67 14.66 1.34 15.32 1 16 C1.66 16 2.32 16 3 16 C3.33 16.66 3.66 17.32 4 18 C4.60630118 15.34743233 5 12.97892751 5 10.25 C5 8 5 8 6 7 C8.75581099 6.89866936 11.485963 6.86032842 14.2421875 6.8671875 C15.0803299 6.86623077 15.91847229 6.86527405 16.78201294 6.86428833 C18.56593907 6.86360576 20.34986766 6.86546536 22.13378906 6.86962891 C24.82883521 6.87490955 27.52370954 6.8697216 30.21875 6.86328125 C38.85876146 6.86026848 47.41205253 6.91632396 56 8 C56 8.33 56 8.66 56 9 C40.16 9 24.32 9 8 9 C8 24.18 8 39.36 8 55 C7.67 55 7.34 55 7 55 C7 44.11 7 33.22 7 22 C5.02 22 3.04 22 1 22 C1 30.91 1 39.82 1 49 C0.67 49 0.34 49 0 49 C0 32.83 0 16.66 0 0 Z " fill="#ACB4BD" transform="translate(39,21)"/>
<path d="M0 0 C19.14 0 38.28 0 58 0 C58 2.97 58 5.94 58 9 C33.25 8.505 33.25 8.505 8 8 C8 7.67 8 7.34 8 7 C23.84 7 39.68 7 56 7 C56 6.01 56 5.02 56 4 C54.80375 3.979375 53.6075 3.95875 52.375 3.9375 C51.70210937 3.92589844 51.02921875 3.91429687 50.3359375 3.90234375 C47.93780212 3.94428346 47.93780212 3.94428346 45.37841797 4.50927734 C41.42515557 5.08349742 37.58843206 5.05933267 33.609375 4.94921875 C32.82355042 4.9303511 32.03772583 4.91148346 31.22808838 4.89204407 C29.57743638 4.85037451 27.9268587 4.80566077 26.27636719 4.75805664 C23.74428581 4.68734041 21.21219052 4.63326755 18.6796875 4.58007812 C17.07288957 4.53746803 15.46611715 4.49388266 13.859375 4.44921875 C13.10106384 4.43453049 12.34275269 4.41984222 11.5614624 4.40470886 C6.2290684 4.2290684 6.2290684 4.2290684 4 2 C2.68 1.34 1.36 0.68 0 0 Z " fill="#BFCAD5" transform="translate(161,39)"/>
<path d="M0 0 C1.32 0.99 2.64 1.98 4 3 C2.4608502 5.02279568 0.91933233 7.04366442 -0.625 9.0625 C-1.08068359 9.65869141 -1.53636719 10.25488281 -2.00585938 10.86914062 C-4.41487862 14.00257416 -6.86206032 17.05364449 -9.5 20 C-12.04899882 22.70664334 -12.04899882 22.70664334 -12.8359375 25.35546875 C-14.33846377 28.76892608 -16.44548759 30.73604576 -19.125 33.3125 C-20.03507812 34.19550781 -20.94515625 35.07851562 -21.8828125 35.98828125 C-22.58148438 36.65214844 -23.28015625 37.31601563 -24 38 C-24 35 -24 35 -22.46875 33.17578125 C-21.49421875 32.25345703 -21.49421875 32.25345703 -20.5 31.3125 C-19.8503125 30.68988281 -19.200625 30.06726563 -18.53125 29.42578125 C-18.0259375 28.95527344 -17.520625 28.48476562 -17 28 C-17.61875 27.690625 -18.2375 27.38125 -18.875 27.0625 C-20.25 26.375 -21.625 25.6875 -23 25 C-22.38253906 24.33355469 -21.76507813 23.66710937 -21.12890625 22.98046875 C-15.86288342 17.24956111 -10.82805141 11.43117965 -6.0078125 5.3125 C-4.14447122 3.16639487 -2.3397213 1.59478761 0 0 Z " fill="#919FB3" transform="translate(135,83)"/>
<path d="M0 0 C0 0.66 0 1.32 0 2 C-13.53 2 -27.06 2 -41 2 C-40.979375 5.465 -40.95875 8.93 -40.9375 12.5 C-40.90173467 25.01961055 -41.37021831 37.49816349 -42 50 C-46.14581887 50.02886751 -50.29161216 50.04675327 -54.4375 50.0625 C-56.21350586 50.07506836 -56.21350586 50.07506836 -58.02539062 50.08789062 C-59.15009766 50.09111328 -60.27480469 50.09433594 -61.43359375 50.09765625 C-62.99678345 50.10551147 -62.99678345 50.10551147 -64.59155273 50.11352539 C-67 50 -67 50 -68 49 C-68.08651611 47.58429877 -68.10704904 46.164405 -68.09765625 44.74609375 C-68.09443359 43.89208984 -68.09121094 43.03808594 -68.08789062 42.15820312 C-68.07951172 41.26037109 -68.07113281 40.36253906 -68.0625 39.4375 C-68.05798828 38.53580078 -68.05347656 37.63410156 -68.04882812 36.70507812 C-68.03700225 34.46998686 -68.0205222 32.23502563 -68 30 C-67.34 30 -66.68 30 -66 30 C-65.67 35.94 -65.34 41.88 -65 48 C-59.91449584 47.96060236 -59.91449584 47.96060236 -54.82910156 47.90991211 C-51.37106862 47.89641097 -48.321503 48.06623116 -45 49 C-43.96310983 38.56188837 -43.68879302 28.14470324 -43.44775391 17.66625977 C-43.39608224 15.47400631 -43.33891989 13.28194634 -43.28125 11.08984375 C-43.23581055 9.15419556 -43.23581055 9.15419556 -43.18945312 7.17944336 C-43 4 -43 4 -42 1 C-36.34001447 0.85726663 -30.68002089 0.71485812 -25.02001953 0.57275391 C-23.09358498 0.52434123 -21.16715267 0.47583896 -19.24072266 0.42724609 C-16.47559177 0.35751299 -13.71045303 0.28809956 -10.9453125 0.21875 C-10.0806839 0.19687622 -9.2160553 0.17500244 -8.32522583 0.15246582 C-2.22774341 0 -2.22774341 0 0 0 Z " fill="#A18EBF" transform="translate(211,94)"/>
<path d="M0 0 C1.32 0 2.64 0 4 0 C6.17163974 10.80002977 6.15822073 21.003659 6 32 C15.9 32 25.8 32 36 32 C36 32.33 36 32.66 36 33 C25.77 33 15.54 33 5 33 C1.625 20.625 1.625 20.625 2 16 C1.01 16.33 0.02 16.66 -1 17 C-0.814375 17.928125 -0.62875 18.85625 -0.4375 19.8125 C0 23 0 23 -1 26 C-1.22451458 28.22574335 -1.40782878 30.45581519 -1.5625 32.6875 C-1.64628906 33.86699219 -1.73007812 35.04648438 -1.81640625 36.26171875 C-1.87699219 37.16535156 -1.93757813 38.06898437 -2 39 C-2.33 39 -2.66 39 -3 39 C-3.09547697 30.42829004 -3.10232707 21.87398427 -2.625 13.3125 C-2.55539063 12.05050781 -2.48578125 10.78851563 -2.4140625 9.48828125 C-2.00929028 6.07826622 -1.21063928 3.20376494 0 0 Z " fill="#A5AFBD" transform="translate(62,85)"/>
<path d="M0 0 C9.19230769 0 9.19230769 0 13 3 C14.44430855 5.88861709 14.37688506 7.79647701 14 11 C12.0625 13.875 12.0625 13.875 9 16 C5.87327402 16.41306246 3.17628148 16.23703593 0 16 C0 10.72 0 5.44 0 0 Z " fill="#282726" transform="translate(28,171)"/>
<path d="M0 0 C3.89523329 0.5770716 6.27061743 2.19480124 9 5 C9.3125 8.25 9.3125 8.25 9 11 C7 8 7 8 6 6 C3.61915122 5.15701426 3.61915122 5.15701426 1 5 C0.01 5.66 -0.98 6.32 -2 7 C-2.41666667 9.5 -2.41666667 9.5 -2 12 C0.35953094 14.35953094 1.77895617 14.49141413 5 15 C4.34 15.66 3.68 16.32 3 17 C-2.45454545 16.54545455 -2.45454545 16.54545455 -5 14 C-7.36195411 13.39397335 -7.36195411 13.39397335 -10 13 C-14.77777778 12.22222222 -14.77777778 12.22222222 -17 10 C-19.43452148 9.83262738 -19.43452148 9.83262738 -22.1875 10 C-26.93338032 10.09991327 -30.54488415 9.58404119 -35 8 C-35 7.67 -35 7.34 -35 7 C-34.1529248 6.99589111 -33.30584961 6.99178223 -32.43310547 6.98754883 C-29.26793746 6.96046092 -26.1040766 6.91126375 -22.93945312 6.84741211 C-21.57401335 6.82432106 -20.20839771 6.8098573 -18.84277344 6.80444336 C-9.90059645 7.09893072 -9.90059645 7.09893072 -2.0703125 3.51171875 C0.10600729 1.4138886 0.10600729 1.4138886 0 0 Z " fill="#D9C8E6" transform="translate(204,64)"/>
<path d="M0 0 C2.55687669 0.34552388 4.57501375 0.75087013 6.8125 2.0625 C8.75956328 5.23928746 8.58777963 8.44566199 8 12 C6.625 15 6.625 15 4 17 C0.59183369 17.58011342 -2.60484215 17.68016518 -6 17 C-6.42442383 16.50588623 -6.84884766 16.01177246 -7.28613281 15.50268555 C-9.72718012 13.36242256 -11.55130047 13.56976395 -14.76171875 13.48828125 C-15.87998047 13.45283203 -16.99824219 13.41738281 -18.15039062 13.38085938 C-19.31763672 13.35830078 -20.48488281 13.33574219 -21.6875 13.3125 C-22.86634766 13.27833984 -24.04519531 13.24417969 -25.25976562 13.20898438 C-28.17308225 13.12642075 -31.08609466 13.05729678 -34 13 C-34 12.67 -34 12.34 -34 12 C-29.7501291 11.91291248 -25.50048761 11.85957819 -21.25 11.8125 C-20.0434375 11.78736328 -18.836875 11.76222656 -17.59375 11.73632812 C-16.43359375 11.72666016 -15.2734375 11.71699219 -14.078125 11.70703125 C-13.00981445 11.6913208 -11.94150391 11.67561035 -10.84082031 11.65942383 C-7.60995904 12.04676067 -6.49579442 13.02258795 -4 15 C-2.68 15 -1.36 15 0 15 C-0.804375 14.525625 -1.60875 14.05125 -2.4375 13.5625 C-5 12 -5 12 -6 11 C-6.3125 8.625 -6.3125 8.625 -6 6 C-4.375 4.0625 -4.375 4.0625 -2 3 C1.1875 3.6875 1.1875 3.6875 4 5 C4.495 5.99 4.495 5.99 5 7 C4.60196439 4.11424181 4.20990931 3.17810487 1.9375 1.25 C1.298125 0.8375 0.65875 0.425 0 0 Z " fill="#B4A9C1" transform="translate(207,65)"/>
<path d="M0 0 C16.5 0 33 0 50 0 C50 2.31 50 4.62 50 7 C49.34 7 48.68 7 48 7 C48 5.35 48 3.7 48 2 C32.82 2 17.64 2 2 2 C2.020625 5.485625 2.04125 8.97125 2.0625 12.5625 C2.09715972 24.72975392 1.64443522 36.85171059 1 49 C0.67 49 0.34 49 0 49 C0 32.83 0 16.66 0 0 Z " fill="#B09DC5" transform="translate(161,87)"/>
<path d="M0 0 C2.4375 1.5625 2.4375 1.5625 4 4 C4.55343865 6.77860435 4.59121128 9.22585478 4 12 C2 14.5 2 14.5 0 16 C-0.33 14.68 -0.66 13.36 -1 12 C-1.33 12.33 -1.66 12.66 -2 13 C-4.9375 13.25 -4.9375 13.25 -8 13 C-10 10 -10 10 -9.625 6.8125 C-9.41875 5.884375 -9.2125 4.95625 -9 4 C-10.32 4.33 -11.64 4.66 -13 5 C-12.06788763 2.66971908 -11.30996602 1.24108468 -9.3125 -0.3125 C-5.88676201 -1.33096265 -3.44183926 -0.86045982 0 0 Z " fill="#BDABCC" transform="translate(219,17)"/>
<path d="M0 0 C4.29643269 1.37425439 6.49650782 3.23840295 9.4375 6.625 C10.20835938 7.511875 10.97921875 8.39875 11.7734375 9.3125 C14.64856731 12.78283212 17.3856452 16.32965091 20 20 C18.75 21.5625 18.75 21.5625 17 23 C13.49419904 22.63106258 12.03742293 21.31386155 9.8359375 18.65625 C9.27132812 17.98722656 8.70671875 17.31820312 8.125 16.62890625 C7.5475 15.92636719 6.97 15.22382812 6.375 14.5 C5.21895582 13.11223771 4.06022711 11.72670598 2.8984375 10.34375 C2.38974121 9.72693359 1.88104492 9.11011719 1.35693359 8.47460938 C0.0463749 6.87512609 0.0463749 6.87512609 -2 6 C-1.34 4.02 -0.68 2.04 0 0 Z " fill="#E5E9EC" transform="translate(108,46)"/>
<path d="M0 0 C0 2.31 0 4.62 0 7 C-0.70125 7.2475 -1.4025 7.495 -2.125 7.75 C-5.06364555 8.90246738 -5.06364555 8.90246738 -7.5625 10.875 C-12.11532042 14.04165987 -17.65330624 15.69534269 -23 17 C-23.66 16.67 -24.32 16.34 -25 16 C-23.68 14.35 -22.36 12.7 -21 11 C-22.32 10.34 -23.64 9.68 -25 9 C-24.00419922 8.70996094 -24.00419922 8.70996094 -22.98828125 8.4140625 C-17.11989977 6.68353249 -11.65662143 5.00444305 -6.375 1.875 C-3 0 -3 0 0 0 Z " fill="#B89EDA" transform="translate(127,125)"/>
<path d="M0 0 C3.78517206 0.25662183 5.01775858 0.68704824 7.6875 3.25 C7.3575 5.23 7.0275 7.21 6.6875 9.25 C6.0275 9.25 5.3675 9.25 4.6875 9.25 C5.43 10.425625 5.43 10.425625 6.1875 11.625 C7.6875 14.25 7.6875 14.25 7.6875 16.25 C6.6975 16.25 5.7075 16.25 4.6875 16.25 C3.63857762 14.61368108 2.63843297 12.94514137 1.6875 11.25 C1.0275 10.92 0.3675 10.59 -0.3125 10.25 C-0.3125 12.23 -0.3125 14.21 -0.3125 16.25 C-1.6325 16.25 -2.9525 16.25 -4.3125 16.25 C-4.33935095 13.77076199 -4.35926547 11.2918116 -4.375 8.8125 C-4.38756836 7.75192383 -4.38756836 7.75192383 -4.40039062 6.66992188 C-4.40903588 4.86306441 -4.36470011 3.05612397 -4.3125 1.25 C-3.3125 0.25 -3.3125 0.25 0 0 Z " fill="#262524" transform="translate(51.3125,170.75)"/>
<path d="M0 0 C1.98 0 3.96 0 6 0 C6.14496508 3.77043032 6.23395607 7.54014742 6.3125 11.3125 C6.35439453 12.38435547 6.39628906 13.45621094 6.43945312 14.56054688 C6.45556641 15.58857422 6.47167969 16.61660156 6.48828125 17.67578125 C6.51446533 18.62364502 6.54064941 19.57150879 6.56762695 20.5480957 C6 23 6 23 3.46948242 24.83276367 C2.65455322 25.21795166 1.83962402 25.60313965 1 26 C0 25 0 25 -0.11352539 22.59155273 C-0.10828857 21.54942627 -0.10305176 20.5072998 -0.09765625 19.43359375 C-0.09443359 18.30888672 -0.09121094 17.18417969 -0.08789062 16.02539062 C-0.07951172 14.84138672 -0.07113281 13.65738281 -0.0625 12.4375 C-0.05798828 11.24962891 -0.05347656 10.06175781 -0.04882812 8.83789062 C-0.03699675 5.89187774 -0.02051287 2.94596319 0 0 Z " fill="#EDF1F0" transform="translate(40,43)"/>
<path d="M0 0 C8 0 8 0 10.5 1.5 C10.995 1.995 11.49 2.49 12 3 C11.47731534 5.76276177 10.89130413 8.3260876 10 11 C10.87914688 13.6569191 10.87914688 13.6569191 12 16 C10.68 16 9.36 16 8 16 C7.34 14.02 6.68 12.04 6 10 C5.01 10 4.02 10 3 10 C3 11.98 3 13.96 3 16 C2.01 16 1.02 16 0 16 C0 10.72 0 5.44 0 0 Z " fill="#262625" transform="translate(181,171)"/>
<path d="M0 0 C7.86664424 1.13734615 12.2263189 6.84897952 16.83520508 12.89550781 C17.67417949 14.02049262 18.50400503 15.15237851 19.32299805 16.29199219 C21.38062445 19.10898577 23.44933532 21.49380484 26.15234375 23.67578125 C29.75535469 26.61651034 31.09190019 28.80218042 33 33 C32.62342103 36.17584169 31.48267157 37.93551102 29.375 40.28515625 C28.83746094 40.89319092 28.29992187 41.50122559 27.74609375 42.12768555 C26.88177734 43.0854187 26.88177734 43.0854187 26 44.0625 C24.81112842 45.40243013 23.62363633 46.74358546 22.4375 48.0859375 C21.85226563 48.7469043 21.26703125 49.40787109 20.6640625 50.08886719 C17.65784833 53.54142654 14.82979991 57.13242237 12 60.73046875 C8.0494369 65.21343195 5.01352282 67.44060253 -1 68 C1 66 1 66 4.2265625 64.31640625 C8.50569427 61.91783446 11.28623123 58.69119232 14.375 54.9375 C14.93010254 54.27572754 15.48520508 53.61395508 16.05712891 52.93212891 C17.17764019 51.59378532 18.29408475 50.25202544 19.40625 48.90673828 C20.86741272 47.1586254 22.36014178 45.44764974 23.875 43.74609375 C24.7 42.79863281 25.525 41.85117188 26.375 40.875 C27.10460937 40.04742187 27.83421875 39.21984375 28.5859375 38.3671875 C30.1820815 36.12124185 30.1820815 36.12124185 30.1015625 33.640625 C28.46909689 29.72733866 25.84134815 26.98125997 23 23.875 C21.80832841 22.54437082 20.6182327 21.21232872 19.4296875 19.87890625 C18.84413086 19.22422363 18.25857422 18.56954102 17.65527344 17.89501953 C15.37024779 15.27903589 13.25767264 12.55398058 11.125 9.8125 C7.77061497 5.64587017 4.87607876 3.17867349 0 1 C0 0.67 0 0.34 0 0 Z " fill="#AFB5BB" transform="translate(100,49)"/>
<path d="M0 0 C13.53 0 27.06 0 41 0 C41 0.33 41 0.66 41 1 C27.8 1 14.6 1 1 1 C1.33 11.89 1.66 22.78 2 34 C8.55942572 34.65594257 15.05142026 35.22889903 21.625 35.5625 C22.84509766 35.62727539 22.84509766 35.62727539 24.08984375 35.69335938 C26.05978694 35.79765049 28.0298785 35.89913321 30 36 C30 36.33 30 36.66 30 37 C27.25021483 37.17109774 24.50026381 37.33692346 21.75 37.5 C20.99203125 37.54769531 20.2340625 37.59539062 19.453125 37.64453125 C12.93352861 38.02484104 6.56568866 38 0 38 C0 25.46 0 12.92 0 0 Z " fill="#ABB1BC" transform="translate(161,40)"/>
<path d="M0 0 C0.33 0 0.66 0 1 0 C1.01030746 0.57834595 1.02061493 1.15669189 1.03123474 1.75256348 C1.14067726 7.85384362 1.2551357 13.95501599 1.37231445 20.05615234 C1.41522883 22.32338167 1.45692747 24.5906344 1.49731445 26.85791016 C1.73894974 42.08297567 1.73894974 42.08297567 2.59375 57.28125 C3.26655219 66.88517149 2.62488433 76.40567137 2.0625 86 C1.96073763 87.85412016 1.85982131 89.70828696 1.75976562 91.5625 C1.51622583 96.04226229 1.26136741 100.52124396 1 105 C3.64 105 6.28 105 9 105 C9 105.33 9 105.66 9 106 C6.03 106 3.06 106 0 106 C0 71.02 0 36.04 0 0 Z " fill="#C1C6CB" transform="translate(38,21)"/>
<path d="M0 0 C2.0625 0.4375 2.0625 0.4375 4 1 C4.08696177 4.93736123 4.14037835 8.87447628 4.1875 12.8125 C4.21263672 13.93205078 4.23777344 15.05160156 4.26367188 16.20507812 C4.27333984 17.27822266 4.28300781 18.35136719 4.29296875 19.45703125 C4.31653442 20.9416687 4.31653442 20.9416687 4.34057617 22.45629883 C4 25 4 25 2.60668945 26.84643555 C1 28 1 28 -1 28 C-1.02886338 23.52084672 -1.04675187 19.04171709 -1.0625 14.5625 C-1.07087891 13.28310547 -1.07925781 12.00371094 -1.08789062 10.68554688 C-1.09111328 9.47060547 -1.09433594 8.25566406 -1.09765625 7.00390625 C-1.10289307 5.87799072 -1.10812988 4.7520752 -1.11352539 3.59204102 C-1 1 -1 1 0 0 Z " fill="#EAEEEF" transform="translate(62,49)"/>
<path d="M0 0 C5.67506323 -0.09223579 11.34748726 -0.17174941 17.02270508 -0.21972656 C18.94987845 -0.23974243 20.87699186 -0.26696383 22.80395508 -0.30175781 C25.58690252 -0.35072041 28.36904156 -0.37306917 31.15234375 -0.390625 C32.00271713 -0.41127014 32.85309052 -0.43191528 33.72923279 -0.45318604 C43.45073741 -0.45676712 51.80517252 3.82359782 58.66796875 10.65625 C59.49941406 11.5946875 60.33085938 12.533125 61.1875 13.5 C62.02667969 14.4384375 62.86585937 15.376875 63.73046875 16.34375 C65.58218075 18.51098607 67.32925571 20.69252254 69 23 C68.67 23.66 68.34 24.32 68 25 C66.4147483 23.2725597 64.83177374 21.54312043 63.25 19.8125 C62.36828125 18.84957031 61.4865625 17.88664062 60.578125 16.89453125 C58 14 58 14 56.05078125 11.33984375 C53.6005473 8.54424349 51.28910719 7.32820413 47.9375 5.75 C46.89464844 5.24984375 45.85179687 4.7496875 44.77734375 4.234375 C39.89304562 2.06357583 35.66329557 1.79154037 30.39453125 1.68359375 C29.13572395 1.6524221 29.13572395 1.6524221 27.85148621 1.62062073 C25.17190706 1.55525982 22.49223031 1.49630286 19.8125 1.4375 C17.99543263 1.39430198 16.17837512 1.35068727 14.36132812 1.30664062 C9.90765066 1.19880832 5.45389861 1.09963505 1 1 C1 9.91 1 18.82 1 28 C0.67 28 0.34 28 0 28 C0 18.76 0 9.52 0 0 Z " fill="#929AA1" transform="translate(59,40)"/>
<path d="M0 0 C-0.99 0.66 -1.98 1.32 -3 2 C-3.50776044 4.21932277 -3.50776044 4.21932277 -3.51171875 6.7890625 C-3.54716797 7.73007812 -3.58261719 8.67109375 -3.61914062 9.640625 C-3.65297852 11.11789063 -3.65297852 11.11789063 -3.6875 12.625 C-3.72166016 13.61757813 -3.75582031 14.61015625 -3.79101562 15.6328125 C-3.87365657 18.08842906 -3.94275127 20.54368141 -4 23 C-5.65 23.33 -7.3 23.66 -9 24 C-9 16.08 -9 8.16 -9 0 C-5.93109813 -1.53445094 -3.29905734 -0.54984289 0 0 Z " fill="#E6EBEF" transform="translate(172,45)"/>
<path d="M0 0 C0.33 0 0.66 0 1 0 C1 12.87 1 25.74 1 39 C0.67 39 0.34 39 0 39 C-0.33 28.11 -0.66 17.22 -1 6 C-4.79389268 9.03511414 -7.18759746 11.2281327 -10.0625 14.9375 C-10.71347656 15.77152344 -11.36445313 16.60554688 -12.03515625 17.46484375 C-12.68355469 18.30144531 -13.33195313 19.13804688 -14 20 C-14.71285156 20.8765625 -15.42570313 21.753125 -16.16015625 22.65625 C-18.06447559 24.94365888 -18.06447559 24.94365888 -19.375 27.5625 C-21.42916731 30.64375096 -23.85316641 32.11189985 -27 34 C-23.4150685 26.0878027 -16.71836855 19.62852194 -10.95703125 13.2421875 C-8.31397875 10.21401956 -5.87338439 7.04932313 -3.4453125 3.84765625 C-2 2 -2 2 0 0 Z " fill="#A594B8" transform="translate(150,90)"/>
<path d="M0 0 C5.33852794 -0.0494731 10.67692214 -0.08575425 16.015625 -0.10986328 C17.83140386 -0.11991491 19.64716656 -0.13355828 21.46289062 -0.15087891 C24.07425935 -0.17516406 26.68541387 -0.18649148 29.296875 -0.1953125 C30.10743347 -0.20563507 30.91799194 -0.21595764 31.75311279 -0.22659302 C38.71585532 -0.22797609 38.71585532 -0.22797609 42 2 C38.98968256 2.93423645 38.13349732 3.04449911 35 2 C33.11342551 2.23451314 31.22724524 2.47363343 29.34521484 2.7421875 C25.01184648 3.21856029 20.66582776 3.06153113 16.3125 3 C14.47532122 2.97435898 12.63807038 2.95337291 10.80078125 2.9375 C9.99809814 2.92589844 9.19541504 2.91429687 8.3684082 2.90234375 C5.82485043 3.00722192 3.48009303 3.44073365 1 4 C1 5.65 1 7.3 1 9 C0.67 9 0.34 9 0 9 C0 6.03 0 3.06 0 0 Z " fill="#BECDDC" transform="translate(60,41)"/>
<path d="M0 0 C0.99 0 1.98 0 3 0 C3.33 3.96 3.66 7.92 4 12 C5.65 12 7.3 12 9 12 C9.33 8.04 9.66 4.08 10 0 C10.99 0 11.98 0 13 0 C13.0810206 2.10353495 13.13919907 4.20795952 13.1875 6.3125 C13.22230469 7.48425781 13.25710937 8.65601563 13.29296875 9.86328125 C13 13 13 13 11.70703125 14.89453125 C8.8322338 16.75624219 6.3093206 16.35457006 3 16 C1.29296875 14.89453125 1.29296875 14.89453125 0 13 C-0.29296875 9.86328125 -0.29296875 9.86328125 -0.1875 6.3125 C-0.16042969 5.13300781 -0.13335937 3.95351562 -0.10546875 2.73828125 C-0.07066406 1.83464844 -0.03585938 0.93101562 0 0 Z " fill="#201F1F" transform="translate(162,171)"/>
<path d="M0 0 C0.99 0 1.98 0 3 0 C3.33 3.96 3.66 7.92 4 12 C6.97 12.495 6.97 12.495 10 13 C10 8.71 10 4.42 10 0 C10.99 0 11.98 0 13 0 C13.05402274 2.10388569 13.09280256 4.20816714 13.125 6.3125 C13.14820313 7.48425781 13.17140625 8.65601563 13.1953125 9.86328125 C13 13 13 13 11 16 C4.04403804 16.66247257 4.04403804 16.66247257 1.2578125 14.89453125 C-0.62894082 12.05268231 -0.28742375 9.67659964 -0.1875 6.3125 C-0.16042969 5.13300781 -0.13335937 3.95351562 -0.10546875 2.73828125 C-0.07066406 1.83464844 -0.03585938 0.93101562 0 0 Z " fill="#212120" transform="translate(126,171)"/>
<path d="M0 0 C3.3 0 6.6 0 10 0 C10 0.99 10 1.98 10 3 C7.69 3 5.38 3 3 3 C3 4.32 3 5.64 3 7 C4.98 7 6.96 7 9 7 C9 7.66 9 8.32 9 9 C7.02 9 5.04 9 3 9 C3 10.32 3 11.64 3 13 C5.64 13 8.28 13 11 13 C11 13.99 11 14.98 11 16 C7.37 16 3.74 16 0 16 C0 10.72 0 5.44 0 0 Z " fill="#10100F" transform="translate(94,171)"/>
<path d="M0 0 C3.3 0 6.6 0 10 0 C10 0.99 10 1.98 10 3 C7.69 3 5.38 3 3 3 C3 4.32 3 5.64 3 7 C4.98 7 6.96 7 9 7 C9 7.66 9 8.32 9 9 C7.02 9 5.04 9 3 9 C3 10.32 3 11.64 3 13 C5.31 13 7.62 13 10 13 C10.33 13.99 10.66 14.98 11 16 C7.37 16 3.74 16 0 16 C0 10.72 0 5.44 0 0 Z " fill="#181817" transform="translate(199,171)"/>
<path d="M0 0 C2.3125 0.125 2.3125 0.125 5 1 C6.875 3.875 6.875 3.875 8 7 C7 10 7 10 5 11 C1.73834906 11.28362182 -0.39582309 11.28618906 -3.375 9.875 C-5 8 -5 8 -5.25 4.8125 C-5.1675 3.884375 -5.085 2.95625 -5 2 C-4.01 3.485 -4.01 3.485 -3 5 C-2.01 3.35 -1.02 1.7 0 0 Z " fill="#B8A3D6" transform="translate(41,137)"/>
<path d="M0 0 C0.99 0 1.98 0 3 0 C4.32 3.3 5.64 6.6 7 10 C8.65 6.7 10.3 3.4 12 0 C12.99 0 13.98 0 15 0 C13.25192871 5.46737191 11.34205919 10.75824848 9 16 C7.68 16 6.36 16 5 16 C4.1605118 13.89828133 3.32860344 11.79353375 2.5 9.6875 C2.0359375 8.51574219 1.571875 7.34398437 1.09375 6.13671875 C0 3 0 3 0 0 Z " fill="#111010" transform="translate(74,171)"/>
<path d="M0 0 C0.66 0 1.32 0 2 0 C2.33 5.94 2.66 11.88 3 18 C8.08550416 17.96060236 8.08550416 17.96060236 13.17089844 17.90991211 C16.70053223 17.89613142 19.55023818 18.13755954 23 19 C23.33 15.04 23.66 11.08 24 7 C24.33 7 24.66 7 25 7 C25 11.29 25 15.58 25 20 C21.02078906 20.02682614 17.04175659 20.04675393 13.0625 20.0625 C11.35803711 20.07506836 11.35803711 20.07506836 9.61914062 20.08789062 C8.53955078 20.09111328 7.45996094 20.09433594 6.34765625 20.09765625 C4.84730835 20.10551147 4.84730835 20.10551147 3.31665039 20.11352539 C1 20 1 20 0 19 C-0.08651611 17.58429877 -0.10704904 16.164405 -0.09765625 14.74609375 C-0.09443359 13.89208984 -0.09121094 13.03808594 -0.08789062 12.15820312 C-0.07951172 11.26037109 -0.07113281 10.36253906 -0.0625 9.4375 C-0.05798828 8.53580078 -0.05347656 7.63410156 -0.04882812 6.70507812 C-0.03700225 4.46998686 -0.0205222 2.23502563 0 0 Z " fill="#947FC7" transform="translate(143,124)"/>
<path d="M0 0 C2.31 0 4.62 0 7 0 C7 4.29 7 8.58 7 13 C5.02 13 3.04 13 1 13 C0 12 0 12 -0.09765625 9.27734375 C-0.08605469 8.17519531 -0.07445312 7.07304687 -0.0625 5.9375 C-0.05347656 4.83277344 -0.04445312 3.72804687 -0.03515625 2.58984375 C-0.02355469 1.73519531 -0.01195312 0.88054687 0 0 Z " fill="#EAE7E2" transform="translate(129,171)"/>
<path d="M0 0 C3.3 0 6.6 0 10 0 C10 0.99 10 1.98 10 3 C7.36 3 4.72 3 2 3 C2 4.32 2 5.64 2 7 C4.31 7 6.62 7 9 7 C9 7.99 9 8.98 9 10 C7.02 10 5.04 10 3 10 C3 11.98 3 13.96 3 16 C2.01 16 1.02 16 0 16 C0 10.72 0 5.44 0 0 Z " fill="#1C1C1B" transform="translate(111,171)"/>
<path d="M0 0 C2.1015625 0.38671875 2.1015625 0.38671875 4.2265625 2.07421875 C5.30445866 4.92294433 4.98051673 6.51014127 4.1015625 9.38671875 C3.1115625 8.06671875 2.1215625 6.74671875 1.1015625 5.38671875 C-1.34323829 5.57500647 -1.34323829 5.57500647 -3.8984375 6.38671875 C-5.25863901 8.35430148 -5.25863901 8.35430148 -5.8984375 10.38671875 C-6.8884375 10.38671875 -7.8784375 10.38671875 -8.8984375 10.38671875 C-9.69288979 7.20890961 -10.17118041 5.12702094 -9.0234375 2.01171875 C-6.05410155 -0.25894992 -3.66470401 -0.17308863 0 0 Z " fill="#A591BF" transform="translate(43.8984375,132.61328125)"/>
<path d="M0 0 C4.29 0 8.58 0 13 0 C13 0.99 13 1.98 13 3 C11.35 3 9.7 3 8 3 C8 7.29 8 11.58 8 16 C7.01 16 6.02 16 5 16 C5 11.71 5 7.42 5 3 C3.35 3 1.7 3 0 3 C0 2.01 0 1.02 0 0 Z " fill="#1E1E1D" transform="translate(144,171)"/>
<path d="M0 0 C6.73276744 4.38210294 15.38788748 12.77577495 19 20 C19.33 17.36 19.66 14.72 20 12 C20.33 12 20.66 12 21 12 C21 15.96 21 19.92 21 24 C17.50117151 21.36984617 14.86113912 18.75383626 12.25 15.25 C8.36757034 10.28461557 4.17361839 5.65316644 -1 2 C-4.00259517 1.66781808 -4.00259517 1.66781808 -5.6875 3.5 C-6.120625 3.995 -6.55375 4.49 -7 5 C-7.99 4.01 -8.98 3.02 -10 2 C-6.53448984 -0.13262163 -4.02900212 -0.69732729 0 0 Z " fill="#AE9BB9" transform="translate(122,30)"/>
<path d="M0 0 C3.66060821 0.58536753 5.54535164 2.083239 8.25 4.5625 C8.95640625 5.20316406 9.6628125 5.84382813 10.390625 6.50390625 C10.92171875 6.99761719 11.4528125 7.49132813 12 8 C10.35 9.32 8.7 10.64 7 12 C4.03 9.36 1.06 6.72 -2 4 C-1.34 2.68 -0.68 1.36 0 0 Z " fill="#C6B6DD" transform="translate(118,31)"/>
<path d="M0 0 C0.886875 0.103125 1.77375 0.20625 2.6875 0.3125 C2.43479753 5.50261987 1.47182094 8.20385096 -2.31054688 11.83789062 C-2.82681641 12.30388672 -3.34308594 12.76988281 -3.875 13.25 C-4.65520508 13.98959961 -4.65520508 13.98959961 -5.45117188 14.74414062 C-6.72497833 15.94782929 -8.01697049 17.13222352 -9.3125 18.3125 C-9.3125 15.3125 -9.3125 15.3125 -7.78125 13.48828125 C-7.1315625 12.87339844 -6.481875 12.25851563 -5.8125 11.625 C-5.1628125 11.00238281 -4.513125 10.37976563 -3.84375 9.73828125 C-3.3384375 9.26777344 -2.833125 8.79726562 -2.3125 8.3125 C-2.93125 8.003125 -3.55 7.69375 -4.1875 7.375 C-5.5625 6.6875 -6.9375 6 -8.3125 5.3125 C-4.12788462 0.38942308 -4.12788462 0.38942308 0 0 Z " fill="#838D9C" transform="translate(120.3125,102.6875)"/>
<path d="M0 0 C2.31 0.33 4.62 0.66 7 1 C7.625 3.8125 7.625 3.8125 8 7 C7.01 8.485 7.01 8.485 6 10 C2.875 10.1875 2.875 10.1875 0 10 C0 6.7 0 3.4 0 0 Z " fill="#E6E2DD" transform="translate(31,174)"/>
<path d="M0 0 C1.98 0 3.96 0 6 0 C6 3.63 6 7.26 6 11 C4.68 10.34 3.36 9.68 2 9 C1.67 11.97 1.34 14.94 1 18 C0.67 18 0.34 18 0 18 C0 12.06 0 6.12 0 0 Z " fill="#DDE5E9" transform="translate(40,43)"/>
<path d="M0 0 C7.26 0 14.52 0 22 0 C22 0.66 22 1.32 22 2 C23.62626404 3.38232443 25.2925002 4.71937515 27 6 C20.25 5.25 20.25 5.25 18 3 C15.56547852 2.83262738 15.56547852 2.83262738 12.8125 3 C8.06661968 3.09991327 4.45511585 2.58404119 0 1 C0 0.67 0 0.34 0 0 Z " fill="#C6CFE5" transform="translate(169,71)"/>
<path d="M0 0 C0 3.96 0 7.92 0 12 C-1.65 12.33 -3.3 12.66 -5 13 C-6 12 -6 12 -6.09765625 9.71484375 C-6.08605469 8.79832031 -6.07445312 7.88179688 -6.0625 6.9375 C-6.05347656 6.01839844 -6.04445312 5.09929687 -6.03515625 4.15234375 C-6.02355469 3.44207031 -6.01195312 2.73179688 -6 2 C-1.125 0 -1.125 0 0 0 Z " fill="#D1D9E7" transform="translate(46,66)"/>
<path d="M0 0 C15.84 0 31.68 0 48 0 C48 0.33 48 0.66 48 1 C47.43481155 1.00364563 46.86962311 1.00729126 46.28730774 1.01104736 C40.39823467 1.05289748 34.50993914 1.12226028 28.62133789 1.20751953 C26.42447694 1.2357239 24.22751461 1.25694107 22.03051758 1.27099609 C18.8700777 1.29243249 15.71085604 1.3390878 12.55078125 1.390625 C11.57039383 1.39185364 10.59000641 1.39308228 9.57991028 1.39434814 C3.94561399 1.51503398 1.25122494 2.0198749 -3 6 C-6.8125 5.75 -6.8125 5.75 -10 5 C-10 4.67 -10 4.34 -10 4 C-9.04287109 3.81824219 -9.04287109 3.81824219 -8.06640625 3.6328125 C-7.24011719 3.46523437 -6.41382813 3.29765625 -5.5625 3.125 C-4.73878906 2.96257812 -3.91507813 2.80015625 -3.06640625 2.6328125 C-2.38449219 2.42398438 -1.70257813 2.21515625 -1 2 C-0.67 1.34 -0.34 0.68 0 0 Z " fill="#EEE2EB" transform="translate(50,145)"/>
<path d="M0 0 C3.19902639 -0.08886184 5.92677456 0.08941469 9 1 C9.76953125 2.64453125 9.76953125 2.64453125 10 5 C8.19921875 7.76171875 8.19921875 7.76171875 5.6875 10.6875 C4.86636719 11.66074219 4.04523438 12.63398437 3.19921875 13.63671875 C1 16 1 16 -1 17 C0.77945087 12.95579349 3.39529673 9.53921513 6 6 C3.32357511 3.81509993 3.32357511 3.81509993 1 4 C0.67 2.68 0.34 1.36 0 0 Z " fill="#B8C4D2" transform="translate(132,80)"/>
<path d="M0 0 C0.99 0.33 1.98 0.66 3 1 C3.6875 3.0625 3.6875 3.0625 4 5 C2.68 5.33 1.36 5.66 0 6 C0 7.65 0 9.3 0 11 C-0.99 11 -1.98 11 -3 11 C-2.67 10.01 -2.34 9.02 -2 8 C-4.31 8 -6.62 8 -9 8 C-9 6.68 -9 5.36 -9 4 C-6.36 4 -3.72 4 -1 4 C-0.67 2.68 -0.34 1.36 0 0 Z " fill="#EAE6E1" transform="translate(122,170)"/>
<path d="M0 0 C0.33 0 0.66 0 1 0 C1 9.9 1 19.8 1 30 C-4.625 24.375 -4.625 24.375 -6 21 C-4.35 21.33 -2.7 21.66 -1 22 C-0.67 14.74 -0.34 7.48 0 0 Z " fill="#F4E4EF" transform="translate(141,21)"/>
<path d="M0 0 C0 3.96 0 7.92 0 12 C-0.33 12 -0.66 12 -1 12 C-1 10.02 -1 8.04 -1 6 C-4.47899158 7.39159663 -5.48052501 8.63251488 -7 12 C-7.08090971 10.37581255 -7.13914995 8.75048255 -7.1875 7.125 C-7.22230469 6.22007813 -7.25710937 5.31515625 -7.29296875 4.3828125 C-7.19628906 3.59648438 -7.09960938 2.81015625 -7 2 C-4 0 -4 0 0 0 Z " fill="#AFBFD0" transform="translate(67,79)"/>
<path d="M0 0 C1.53818979 0.24471201 3.07616265 0.49083477 4.61328125 0.7421875 C9.71476 1.2932474 14.87559106 1.0693529 20 1 C20 1.99 20 2.98 20 4 C13.4 4 6.8 4 0 4 C-0.33 3.01 -0.66 2.02 -1 1 C-0.67 0.67 -0.34 0.34 0 0 Z " fill="#BBC9DF" transform="translate(169,72)"/>
<path d="M0 0 C0.99 0 1.98 0 3 0 C3 5.28 3 10.56 3 16 C2.01 16 1.02 16 0 16 C0 10.72 0 5.44 0 0 Z " fill="#1B1B1A" transform="translate(65,171)"/>
<path d="M0 0 C0.99 0 1.98 0 3 0 C3.06058594 0.83144531 3.12117187 1.66289062 3.18359375 2.51953125 C3.26738281 3.60621094 3.35117188 4.69289062 3.4375 5.8125 C3.55931641 7.43091797 3.55931641 7.43091797 3.68359375 9.08203125 C3.90212461 12.05989905 3.90212461 12.05989905 5 15 C1.125 14.125 1.125 14.125 0 13 C-0.07258946 10.81360547 -0.08373783 8.62499611 -0.0625 6.4375 C-0.05347656 5.23996094 -0.04445312 4.04242188 -0.03515625 2.80859375 C-0.02355469 1.88175781 -0.01195312 0.95492187 0 0 Z " fill="#141313" transform="translate(162,171)"/>
<path d="M0 0 C1.875 0.9375 1.875 0.9375 3.125 3.5 C3.3725 4.304375 3.62 5.10875 3.875 5.9375 C3.215 6.5975 2.555 7.2575 1.875 7.9375 C0 7.875 0 7.875 -2.125 6.9375 C-4.375 4.375 -4.375 4.375 -6.125 1.9375 C-3.94811446 0.61581949 -2.57282067 -0.0756712 0 0 Z " fill="#CFD8E4" transform="translate(128.125,67.0625)"/>
<path d="M0 0 C1.65 0 3.3 0 5 0 C4.01 0.33 3.02 0.66 2 1 C2 4.96 2 8.92 2 13 C3.98 13 5.96 13 8 13 C8 13.66 8 14.32 8 15 C5.36 15 2.72 15 0 15 C0 10.05 0 5.1 0 0 Z " fill="#0E0E0D" transform="translate(29,172)"/>
<path d="M0 0 C2.625 0.375 2.625 0.375 5 1 C5.042721 2.66611905 5.04063832 4.33382885 5 6 C4 7 4 7 1.4375 7.0625 C0.2309375 7.0315625 0.2309375 7.0315625 -1 7 C-1.625 4.625 -1.625 4.625 -2 2 C-1.34 1.34 -0.68 0.68 0 0 Z " fill="#F9F0F2" transform="translate(41,137)"/>
<path d="M0 0 C0.99 0 1.98 0 3 0 C1.66666667 4 0.33333333 8 -1 12 C-2.65 12 -4.3 12 -6 12 C-4 8 -2 4 0 0 Z " fill="#272726" transform="translate(86,171)"/>
<path d="M0 0 C-0.66 1.65 -1.32 3.3 -2 5 C-0.68 5.99 0.64 6.98 2 8 C-1.3 7.34 -4.6 6.68 -8 6 C-8 5.34 -8 4.68 -8 4 C-8.66 4 -9.32 4 -10 4 C-10 3.34 -10 2.68 -10 2 C-8.7090864 1.66376204 -7.41723903 1.33110751 -6.125 1 C-5.40570313 0.814375 -4.68640625 0.62875 -3.9453125 0.4375 C-2 0 -2 0 0 0 Z " fill="#989BB1" transform="translate(108,25)"/>
<path d="M0 0 C1.2065625 0.0309375 1.2065625 0.0309375 2.4375 0.0625 C3.0625 2.4375 3.0625 2.4375 3.4375 5.0625 C2.7775 5.7225 2.1175 6.3825 1.4375 7.0625 C0.1175 7.0625 -1.2025 7.0625 -2.5625 7.0625 C-2.94383299 5.0710944 -3.27575582 3.06970923 -3.5625 1.0625 C-2.5625 0.0625 -2.5625 0.0625 0 0 Z " fill="#F7EEF0" transform="translate(214.5625,21.9375)"/>
<path d="M0 0 C1.67542976 0.28604898 3.34385343 0.61781233 5 1 C5.625 2.875 5.625 2.875 6 5 C5.34 5.66 4.68 6.32 4 7 C1.375 6.625 1.375 6.625 -1 6 C-1.042721 4.33388095 -1.04063832 2.66617115 -1 1 C-0.67 0.67 -0.34 0.34 0 0 Z " fill="#F9F0F2" transform="translate(204,70)"/>
<path d="M0 0 C0.33 0 0.66 0 1 0 C1.33 2.97 1.66 5.94 2 9 C2.99 9 3.98 9 5 9 C5.33 6.03 5.66 3.06 6 0 C6.33 0 6.66 0 7 0 C7.02686553 1.97909398 7.04633375 3.95828971 7.0625 5.9375 C7.07410156 7.03964844 7.08570313 8.14179688 7.09765625 9.27734375 C7 12 7 12 6 13 C3.5 13.125 3.5 13.125 1 13 C0 12 0 12 -0.09765625 9.27734375 C-0.08605469 8.17519531 -0.07445312 7.07304687 -0.0625 5.9375 C-0.05347656 4.83277344 -0.04445312 3.72804687 -0.03515625 2.58984375 C-0.02355469 1.73519531 -0.01195312 0.88054687 0 0 Z " fill="#DDDAD4" transform="translate(165,171)"/>
<path d="M0 0 C1.98 0 3.96 0 6 0 C4.68 0.33 3.36 0.66 2 1 C2 2.98 2 4.96 2 7 C2.66 7 3.32 7 4 7 C4 7.66 4 8.32 4 9 C3.34 9 2.68 9 2 9 C2 10.98 2 12.96 2 15 C1.34 15 0.68 15 0 15 C0 10.05 0 5.1 0 0 Z " fill="#080808" transform="translate(182,172)"/>
<path d="M0 0 C0.33 1.32 0.66 2.64 1 4 C3.64 4 6.28 4 9 4 C9 4.99 9 5.98 9 7 C5.37 7 1.74 7 -2 7 C-1 3 -1 3 0 0 Z " fill="#262524" transform="translate(96,180)"/>
<path d="M0 0 C2.31 0 4.62 0 7 0 C7 2.31 7 4.62 7 7 C4.69 7 2.38 7 0 7 C0 6.67 0 6.34 0 6 C1.98 6 3.96 6 6 6 C6 5.34 6 4.68 6 4 C4.02 4 2.04 4 0 4 C0 2.68 0 1.36 0 0 Z " fill="#D5D2CD" transform="translate(202,174)"/>
<path d="M0 0 C0.33 1.32 0.66 2.64 1 4 C0.01 4.33 -0.98 4.66 -2 5 C-1.34 5.33 -0.68 5.66 0 6 C0 7.32 0 8.64 0 10 C-2.31 10 -4.62 10 -7 10 C-7 9.67 -7 9.34 -7 9 C-5.02 9 -3.04 9 -1 9 C-1 8.34 -1 7.68 -1 7 C-2.98 7 -4.96 7 -7 7 C-7 5.68 -7 4.36 -7 3 C-4.69 3 -2.38 3 0 3 C0 2.01 0 1.02 0 0 Z " fill="#C6C3BE" transform="translate(104,171)"/>
<path d="M0 0 C0.93065133 2.60582371 1.14917407 3.64198224 0.0625 6.25 C-0.4634375 7.11625 -0.4634375 7.11625 -1 8 C0.32 7.34 1.64 6.68 3 6 C3 4.02 3 2.04 3 0 C3.66 0 4.32 0 5 0 C5 2.97 5 5.94 5 9 C2.36 9 -0.28 9 -3 9 C-2.25 2.25 -2.25 2.25 0 0 Z " fill="#616A74" transform="translate(42,117)"/>
<path d="M0 0 C4.9240432 4.7652031 9.44259642 9.88657333 14 15 C13.67 15.99 13.34 16.98 13 18 C11.01208727 15.75722666 9.0347098 13.50651246 7.0625 11.25 C6.21655273 10.29867187 6.21655273 10.29867187 5.35351562 9.328125 C4.81533203 8.709375 4.27714844 8.090625 3.72265625 7.453125 C3.22515869 6.88754883 2.72766113 6.32197266 2.21508789 5.73925781 C0.88386548 3.83376687 0.41972534 2.2704314 0 0 Z " fill="#B5A6BE" transform="translate(124,42)"/>
<path d="M0 0 C0 5.28 0 10.56 0 16 C-0.33 16 -0.66 16 -1 16 C-1.33 12.04 -1.66 8.08 -2 4 C-2.99 4 -3.98 4 -5 4 C-5 4.66 -5 5.32 -5 6 C-5.66 6 -6.32 6 -7 6 C-4.84615385 0 -4.84615385 0 0 0 Z " fill="#F1EEE8" transform="translate(94,171)"/>
<path d="M0 0 C0 3.61207397 -1.1151038 4.98416608 -3 8 C-3.33 8.99 -3.66 9.98 -4 11 C-5.98 11.33 -7.96 11.66 -10 12 C-10.33 11.01 -10.66 10.02 -11 9 C-9.6696875 8.1646875 -9.6696875 8.1646875 -8.3125 7.3125 C-5.15720622 5.22146208 -2.60131889 2.75433765 0 0 Z " fill="#F0F0EC" transform="translate(118,113)"/>
<path d="M0 0 C0.66 0.33 1.32 0.66 2 1 C1.855625 2.216875 1.71125 3.43375 1.5625 4.6875 C0.88136774 10.7787685 0.44401931 16.88764914 0 23 C-0.33 23 -0.66 23 -1 23 C-1.02714434 20.2915983 -1.04690846 17.58347279 -1.0625 14.875 C-1.07087891 14.11445312 -1.07925781 13.35390625 -1.08789062 12.5703125 C-1.10646509 8.2610356 -0.86117265 4.24483526 0 0 Z " fill="#88919C" transform="translate(60,101)"/>
<path d="M0 0 C0.33 0 0.66 0 1 0 C1.36666667 5.5 1.36666667 5.5 -0.375 7.875 C-2 9 -2 9 -4 9 C-4 6.36 -4 3.72 -4 1 C-3.01 1.33 -2.02 1.66 -1 2 C-0.67 1.34 -0.34 0.68 0 0 Z " fill="#D1D9E6" transform="translate(65,68)"/>
<path d="M0 0 C-0.33 1.98 -0.66 3.96 -1 6 C-1.99 6.33 -2.98 6.66 -4 7 C-4.33 6.01 -4.66 5.02 -5 4 C-4.34 4 -3.68 4 -3 4 C-3.66868314 0.88667752 -3.66868314 0.88667752 -6.0625 -0.1875 C-6.701875 -0.455625 -7.34125 -0.72375 -8 -1 C-4.59745511 -2.2151946 -3.06748874 -1.86240388 0 0 Z " fill="#1A1A19" transform="translate(59,174)"/>
<path d="M0 0 C0.66 0 1.32 0 2 0 C2.66 2.31 3.32 4.62 4 7 C3.34 7.66 2.68 8.32 2 9 C1.34 10.32 0.68 11.64 0 13 C0 8.71 0 4.42 0 0 Z " fill="#737F89" transform="translate(39,110)"/>
<path d="M0 0 C0.042721 1.66611905 0.04063832 3.33382885 0 5 C-1 6 -1 6 -3.5625 6.0625 C-4.7690625 6.0315625 -4.7690625 6.0315625 -6 6 C-6 4.35 -6 2.7 -6 1 C-3.92446352 0.4465236 -2.15634036 0 0 0 Z " fill="#F7F4F0" transform="translate(38,178)"/>
<path d="M0 0 C1.74627478 2.61941217 2.38722388 4.03824877 3 7 C2.01 7.66 1.02 8.32 0 9 C-0.99 8.67 -1.98 8.34 -3 8 C-3.33 7.34 -3.66 6.68 -4 6 C-3.01 5.34 -2.02 4.68 -1 4 C-0.27617533 1.94074861 -0.27617533 1.94074861 0 0 Z " fill="#B39DCF" transform="translate(46,139)"/>
<path d="M0 0 C0.33 0.66 0.66 1.32 1 2 C2.32 1.67 3.64 1.34 5 1 C4.25 2.9375 4.25 2.9375 3 5 C0.875 5.75 0.875 5.75 -1 6 C-1.66 4.68 -2.32 3.36 -3 2 C-2.01 1.34 -1.02 0.68 0 0 Z " fill="#667184" transform="translate(114,108)"/>
<path d="M0 0 C1.875 1.5 1.875 1.5 3 3 C0 3 0 3 -2 2.3125 C-2.66 2.209375 -3.32 2.10625 -4 2 C-5.77190909 3.35444301 -5.77190909 3.35444301 -7 5 C-7.99 4.01 -8.98 3.02 -10 2 C-6.60268371 -0.09065618 -3.95730595 -0.42098999 0 0 Z " fill="#AFAAC4" transform="translate(122,30)"/>
<path d="M0 0 C1.65 0 3.3 0 5 0 C5 1.32 5 2.64 5 4 C3.35 4.33 1.7 4.66 0 5 C0 3.35 0 1.7 0 0 Z " fill="#DCD9D4" transform="translate(184,174)"/>
<path d="M0 0 C1.98 0 3.96 0 6 0 C6 1.65 6 3.3 6 5 C5.67 4.34 5.34 3.68 5 3 C2.525 4.485 2.525 4.485 0 6 C0 4.02 0 2.04 0 0 Z " fill="#C3D2E0" transform="translate(40,43)"/>
<path d="M0 0 C0.99 0 1.98 0 3 0 C4.4606285 2.64738916 5 3.89448334 5 7 C4.01 7.33 3.02 7.66 2 8 C0.74335022 5.09399739 0 3.20395416 0 0 Z " fill="#232322" transform="translate(74,171)"/>
<path d="M0 0 C0.66 0.33 1.32 0.66 2 1 C2 5.29 2 9.58 2 14 C-1.47026414 8.79460379 -0.87215245 5.91125548 0 0 Z " fill="#7A8591" transform="translate(65,99)"/>
<path d="M0 0 C3.1875 0.875 3.1875 0.875 6 2 C6 3.98 6 5.96 6 8 C5.773125 7.360625 5.54625 6.72125 5.3125 6.0625 C4.14749104 3.72806339 4.14749104 3.72806339 1.375 3.25 C0.59125 3.1675 -0.1925 3.085 -1 3 C-1.99 4.32 -2.98 5.64 -4 7 C-3.6875 4.625 -3.6875 4.625 -3 2 C-2.01 1.34 -1.02 0.68 0 0 Z " fill="#B6A4C2" transform="translate(205,68)"/>
<path d="M0 0 C0.66 1.32 1.32 2.64 2 4 C1.01 4.33 0.02 4.66 -1 5 C-1 4.34 -1 3.68 -1 3 C-3.31 2.67 -5.62 2.34 -8 2 C-4.77208445 -0.1519437 -3.71599191 -0.20086443 0 0 Z " fill="#1A1919" transform="translate(39,172)"/>
<path d="M0 0 C0.66 0.66 1.32 1.32 2 2 C0.68 3.32 -0.64 4.64 -2 6 C-1.34 6.33 -0.68 6.66 0 7 C-2.70879335 8.35439668 -5.00933268 8.06501451 -8 8 C-5.33333333 5.33333333 -2.66666667 2.66666667 0 0 Z " fill="#F6EDF0" transform="translate(131,127)"/>
<path d="M0 0 C7.13414634 5.70731707 7.13414634 5.70731707 9 9 C8.67 9.99 8.34 10.98 8 12 C7.59007812 11.43410156 7.18015625 10.86820313 6.7578125 10.28515625 C6.21898437 9.55167969 5.68015625 8.81820312 5.125 8.0625 C4.59132812 7.33160156 4.05765625 6.60070312 3.5078125 5.84765625 C2.11987896 3.88901765 2.11987896 3.88901765 0 3 C0 2.01 0 1.02 0 0 Z " fill="#CED3DA" transform="translate(134,72)"/>
<path d="M0 0 C2.475 0.495 2.475 0.495 5 1 C5 1.99 5 2.98 5 4 C3.35 4.33 1.7 4.66 0 5 C0 3.35 0 1.7 0 0 Z " fill="#EAE6E2" transform="translate(51,174)"/>
<path d="M0 0 C0.66 1.32 1.32 2.64 2 4 C3.98 3.67 5.96 3.34 8 3 C8 3.99 8 4.98 8 6 C6.02 6.33 4.04 6.66 2 7 C0.4375 5.1875 0.4375 5.1875 -1 3 C-0.67 2.01 -0.34 1.02 0 0 Z " fill="#C4B4CB" transform="translate(202,72)"/>
<path d="M0 0 C3.21043882 1.38188453 5.04936365 2.92421903 7.25 5.625 C8.03117187 6.57246094 8.03117187 6.57246094 8.828125 7.5390625 C9.40820312 8.26222656 9.40820312 8.26222656 10 9 C9.67 9.66 9.34 10.32 9 11 C7.49703315 9.35687553 5.99769719 7.71042916 4.5 6.0625 C3.6646875 5.14597656 2.829375 4.22945312 1.96875 3.28515625 C0 1 0 1 0 0 Z " fill="#A9ACAD" transform="translate(118,54)"/>
<path d="M0 0 C0.33 0 0.66 0 1 0 C1 2.31 1 4.62 1 7 C-1.62187494 5.95125002 -2.79371361 5.35068687 -4.25 2.875 C-4.4975 2.25625 -4.745 1.6375 -5 1 C-2.525 1.495 -2.525 1.495 0 2 C0 1.34 0 0.68 0 0 Z " fill="#FAF1F2" transform="translate(140,41)"/>
<path d="M0 0 C2.5625 0.375 2.5625 0.375 4.375 2.375 C4.766875 3.035 5.15875 3.695 5.5625 4.375 C1.95449098 4.375 -1.19021264 3.99864368 -4.4375 2.375 C-2.4375 0.375 -2.4375 0.375 0 0 Z " fill="#AA90D1" transform="translate(43.4375,132.625)"/>
<path d="M0 0 C0 0.99 0 1.98 0 3 C-1.53125 4.38671875 -1.53125 4.38671875 -3.5 5.6875 C-4.47453125 6.34298828 -4.47453125 6.34298828 -5.46875 7.01171875 C-5.9740625 7.33785156 -6.479375 7.66398437 -7 8 C-5.355132 4.33067907 -3.64667862 1.82333931 0 0 Z " fill="#A38DBF" transform="translate(130,116)"/>
<path d="M0 0 C2.31 0.33 4.62 0.66 7 1 C6.34 2.32 5.68 3.64 5 5 C4.67 4.34 4.34 3.68 4 3 C2.35 3 0.7 3 -1 3 C-0.67 2.01 -0.34 1.02 0 0 Z " fill="#8893A5" transform="translate(119,100)"/>
<path d="M0 0 C3.3 0 6.6 0 10 0 C9.67 0.66 9.34 1.32 9 2 C6 2 3 2 0 2 C0 1.34 0 0.68 0 0 Z " fill="#82909D" transform="translate(40,22)"/>
<path d="M0 0 C1.0326802 2.78823655 1.04509293 3.8677274 0.0625 6.75 C-0.288125 7.4925 -0.63875 8.235 -1 9 C-1.66 9 -2.32 9 -3 9 C-2.25 2.25 -2.25 2.25 0 0 Z " fill="#56606C" transform="translate(42,117)"/>
<path d="M0 0 C0.33 0 0.66 0 1 0 C1 2.97 1 5.94 1 9 C0.01 8.67 -0.98 8.34 -2 8 C-1.47731534 5.23723823 -0.89130413 2.6739124 0 0 Z " fill="#AAB7C5" transform="translate(46,29)"/>
<path d="M0 0 C0.99 0 1.98 0 3 0 C3.33 1.32 3.66 2.64 4 4 C2.02 4.99 2.02 4.99 0 6 C0 4.02 0 2.04 0 0 Z " fill="#E1DDD8" transform="translate(184,181)"/>
<path d="M0 0 C0.33 0.66 0.66 1.32 1 2 C1.66 2 2.32 2 3 2 C3 3.65 3 5.3 3 7 C2.01 7.33 1.02 7.66 0 8 C-1.125 2.25 -1.125 2.25 0 0 Z " fill="#AB97C7" transform="translate(35,135)"/>
</svg>
