<?xml version="1.0" encoding="UTF-8"?>
<svg version="1.1" xmlns="http://www.w3.org/2000/svg" width="500" height="500">
<path d="M0 0 C165 0 330 0 500 0 C500 165 500 330 500 500 C335 500 170 500 0 500 C0 335 0 170 0 0 Z " fill="#000000" transform="translate(0,0)"/>
<path d="M0 0 C45.13656687 0 45.13656687 0 56.1875 10.75 C59.66055277 14.41629836 62.85154721 18.19341406 65.875 22.234375 C69.49482192 26.94546676 73.3224014 31.48782013 77.11425781 36.06079102 C77.70045898 36.76905029 78.28666016 37.47730957 78.890625 38.20703125 C79.41688477 38.8410083 79.94314453 39.47498535 80.48535156 40.12817383 C82.04076062 42.05037261 83.52846279 44.01309458 85 46 C83.69282061 48.80549386 82.24247212 51.1164695 80.27734375 53.50390625 C79.74334961 54.15665527 79.20935547 54.8094043 78.65917969 55.48193359 C78.09102539 56.16852051 77.52287109 56.85510742 76.9375 57.5625 C76.06013184 58.63105225 76.06013184 58.63105225 75.16503906 59.72119141 C73.98818902 61.15428584 72.8099857 62.58627013 71.63037109 64.01708984 C70.23060974 65.71952496 68.84023079 67.42864205 67.45703125 69.14453125 C58.63427223 80.05976763 52.00195166 88.22135482 39 94 C26.13 94 13.26 94 0 94 C0 62.98 0 31.96 0 0 Z " fill="#000101" transform="translate(183,174)"/>
<path d="M0 0 C3.38976245 1.92751198 6.52667441 3.96358299 9 7 C9.82921863 11.0148002 9.9150441 15.21711646 8.015625 18.91796875 C5.78746134 21.70317333 3.42727169 23.96143282 0 25 C-4.64737625 25.49440173 -7.24757 24.78751943 -11 22 C-11.33 21.34 -11.66 20.68 -12 20 C-37.08 19.67 -62.16 19.34 -88 19 C-88 39.13 -88 59.26 -88 80 C-91.19154311 76.80845689 -94.29738382 73.65695091 -97.3125 70.3125 C-98.00988281 69.54550781 -98.70726562 68.77851563 -99.42578125 67.98828125 C-101 66 -101 66 -101 64 C-101.66 64 -102.32 64 -103 64 C-104.19140625 62.63671875 -104.19140625 62.63671875 -105.5625 60.6875 C-109.49883351 55.27741844 -113.6838162 50.11144916 -118 45 C-118.42974121 44.48824219 -118.85948242 43.97648437 -119.30224609 43.44921875 C-129.04668856 31.95412819 -142.44374007 21.0889694 -158.02410889 19.43707275 C-162.38734437 19.14830496 -166.74657287 19.16614047 -171.1171875 19.1953125 C-172.53265682 19.18421996 -173.94810776 19.17046449 -175.36352539 19.15405273 C-180.5338576 19.11232263 -185.70450054 19.12155866 -190.875 19.125 C-202.46625 19.08375 -214.0575 19.0425 -226 19 C-226 62.23 -226 105.46 -226 150 C-229.96 150 -233.92 150 -238 150 C-238 102.48 -238 54.96 -238 6 C-224.820625 5.979375 -211.64125 5.95875 -198.0625 5.9375 C-193.8950415 5.928396 -189.72758301 5.91929199 -185.43383789 5.90991211 C-180.36022949 5.90539551 -180.36022949 5.90539551 -177.98802185 5.90455627 C-176.32472975 5.90301673 -174.66143878 5.89949159 -172.99815369 5.89442444 C-170.48450774 5.88714691 -167.97093023 5.88609258 -165.45727539 5.88647461 C-164.33846906 5.88107745 -164.33846906 5.88107745 -163.19706059 5.87557125 C-158.11402634 5.88597366 -158.11402634 5.88597366 -157 7 C-154.96044851 7.36615094 -152.91821752 7.71739279 -150.875 8.0625 C-131.12626154 12.22118653 -114.78361552 26.51222519 -103.34326172 42.68701172 C-102.90182831 43.3096994 -102.4603949 43.93238708 -102.00558472 44.57394409 C-101.50782028 45.27984177 -101.50782028 45.27984177 -101 46 C-100.96241577 44.23571655 -100.96241577 44.23571655 -100.92407227 42.43579102 C-100.83017194 38.08785378 -100.72990952 33.74008284 -100.62768555 29.39233398 C-100.58427067 27.50760782 -100.54260057 25.62284064 -100.50268555 23.73803711 C-100.44514107 21.03486751 -100.38140196 18.33190564 -100.31640625 15.62890625 C-100.29969376 14.78099014 -100.28298126 13.93307404 -100.26576233 13.0594635 C-100.11387171 7.11387171 -100.11387171 7.11387171 -99 6 C-96.34892195 5.89613863 -93.72304673 5.85638565 -91.07128906 5.8581543 C-90.24036743 5.85467987 -89.4094458 5.85120544 -88.55334473 5.84762573 C-86.74231897 5.84025443 -84.9312841 5.83491641 -83.12024689 5.83133507 C-80.25389719 5.82418951 -77.38772068 5.80853671 -74.52142334 5.78999329 C-66.3694499 5.73743881 -58.21756882 5.68955101 -50.06542969 5.67407227 C-45.08445262 5.66399285 -40.10390696 5.63466574 -35.12310028 5.59275246 C-33.22374484 5.58043316 -31.32432847 5.57532289 -29.42493439 5.57755089 C-26.7649178 5.57990278 -24.1061385 5.55774539 -21.44628906 5.5300293 C-20.66167297 5.53663071 -19.87705688 5.54323212 -19.06866455 5.55003357 C-14.05074605 5.46422045 -11.59165799 4.47565221 -8 1 C-5.13391871 -0.43304064 -3.18699217 -0.30644155 0 0 Z " fill="#DAC2FC" transform="translate(381,130)"/>
<path d="M0 0 C22.11 0 44.22 0 67 0 C67 3.96 67 7.92 67 12 C48.85 12 30.7 12 12 12 C12 34.11 12 56.22 12 79 C-0.21 79 -12.42 79 -25 79 C-25 65.14 -25 51.28 -25 37 C-29.03464379 41.00528829 -29.03464379 41.00528829 -32.8125 45.1875 C-33.31910156 45.78046875 -33.82570313 46.3734375 -34.34765625 46.984375 C-35.53169562 48.42873508 -36.68178177 49.90118886 -37.80859375 51.390625 C-42.56741218 57.63358197 -47.60019457 62.45535289 -54 67 C-55.13695312 67.81791016 -55.13695312 67.81791016 -56.296875 68.65234375 C-68.65938116 76.80413053 -81.99870701 78.75907387 -96.4375 78.48828125 C-97.93919681 78.47891968 -99.44090921 78.47181947 -100.94262695 78.46684265 C-104.83582064 78.44803474 -108.72803478 78.39917303 -112.62084961 78.34332275 C-116.61689005 78.2915526 -120.61309365 78.26920727 -124.609375 78.24414062 C-132.4066896 78.19101814 -140.20320597 78.10603925 -148 78 C-148.28488281 78.62390625 -148.56976563 79.2478125 -148.86328125 79.890625 C-150.44031559 82.81708048 -151.97515862 83.65562606 -155 85 C-158.67854959 85.69406596 -160.91883734 85.5917943 -164.2265625 83.78125 C-167.42038638 81.38870349 -169.60543169 79.43994756 -170.6796875 75.51953125 C-170.90735464 71.09341414 -170.42873582 67.94006487 -167.625 64.4375 C-164.29522574 61.34556675 -162.68475217 60.79970236 -158.25 60.625 C-157.40953125 60.57601562 -156.5690625 60.52703125 -155.703125 60.4765625 C-153 61 -153 61 -150.64355469 63.49560547 C-145.89495829 67.55602178 -139.9256565 66.67366723 -134 66.59375 C-132.73212646 66.59379028 -131.46425293 66.59383057 -130.15795898 66.59387207 C-127.47407579 66.58851387 -124.79237587 66.57360656 -122.10888672 66.54199219 C-118.71124873 66.50263614 -115.31472287 66.49791133 -111.91690063 66.50545502 C-108.63201039 66.50931404 -105.34732135 66.48835685 -102.0625 66.46875 C-100.86302734 66.46854858 -99.66355469 66.46834717 -98.42773438 66.46813965 C-86.14571115 66.29978182 -74.61737662 64.39515863 -64 58 C-63.21496094 57.55398438 -62.42992187 57.10796875 -61.62109375 56.6484375 C-50.24281465 49.52559826 -42.21851506 37.70954715 -34.11376953 27.22509766 C-30.20087637 22.1823548 -26.07657626 17.33941978 -21.88256836 12.52905273 C-19.75684377 10.08527534 -17.79977427 7.69966141 -16 5 C-15.34 5 -14.68 5 -14 5 C-13.67 25.13 -13.34 45.26 -13 66 C-8.71 66.33 -4.42 66.66 0 67 C0 44.89 0 22.78 0 0 Z " fill="#BBA4F7" transform="translate(307,227)"/>
<path d="M0 0 C51 0 51 0 63 3 C63.495 4.485 63.495 4.485 64 6 C65.04220703 6.07927734 65.04220703 6.07927734 66.10546875 6.16015625 C70.03131274 7.29923379 72.43168549 9.67083177 75.3125 12.4375 C75.88718018 12.97955078 76.46186035 13.52160156 77.05395508 14.08007812 C81.07799212 17.94387843 84.66408499 21.99971768 88.046875 26.44140625 C90.26367606 29.34541564 92.58914033 32.138918 94.9375 34.9375 C99.66624808 40.59159632 104.35367113 46.27796464 109 52 C109.76570313 52.84691406 110.53140625 53.69382813 111.3203125 54.56640625 C113 57 113 57 113.0546875 58.91015625 C111.46669566 62.05673267 109.33423136 64.71404775 107.125 67.4375 C106.63829834 68.04787109 106.15159668 68.65824219 105.65014648 69.28710938 C101.76740962 74.12760047 97.77758284 78.87799668 93.70556641 83.56030273 C91.54298651 86.06809657 89.57960269 88.58322956 87.80859375 91.375 C87.21175781 92.24125 86.61492187 93.1075 86 94 C85.34 94 84.68 94 84 94 C83.62875 94.84111328 83.62875 94.84111328 83.25 95.69921875 C76.65212255 107.84343692 65.7310185 114.18069445 53 118 C35.51 118 18.02 118 0 118 C0 79.06 0 40.12 0 0 Z M13 12 C13 43.02 13 74.04 13 106 C44.5589482 108.80812858 44.5589482 108.80812858 68.0625 96.5 C72.38136557 91.81528011 76.22678143 86.72023613 80.1171875 81.6796875 C83.38816403 77.46520304 86.82683027 73.40241331 90.29614258 69.35083008 C92.92547921 66.27988001 95.49223053 63.1710774 98 60 C96.69346875 56.23141236 95.1635582 53.77178104 92.4375 50.875 C86.97622064 44.91993407 81.88864074 38.67791618 76.8984375 32.32421875 C67.38395436 20.20294116 67.38395436 20.20294116 54 13 C40.39711414 11.63971141 26.6707311 12 13 12 Z " fill="#AFC0D8" transform="translate(170,162)"/>
<path d="M0 0 C13.179375 -0.020625 26.35875 -0.04125 39.9375 -0.0625 C44.1049585 -0.071604 48.27241699 -0.08070801 52.56616211 -0.09008789 C57.63977051 -0.09460449 57.63977051 -0.09460449 60.01197815 -0.09544373 C61.67527025 -0.09698327 63.33856122 -0.10050841 65.00184631 -0.10557556 C67.51549226 -0.11285309 70.02906977 -0.11390742 72.54272461 -0.11352539 C73.66153094 -0.11892255 73.66153094 -0.11892255 74.80293941 -0.12442875 C79.88597366 -0.11402634 79.88597366 -0.11402634 81 1 C84.61386323 1.79053258 88.24247397 2.48418602 91.875 3.18359375 C92.90625 3.45300781 93.9375 3.72242188 95 4 C95.495 4.99 95.495 4.99 96 6 C95.0409375 6.433125 95.0409375 6.433125 94.0625 6.875 C91.84793921 7.82823451 91.84793921 7.82823451 91 10 C88.9375 10.625 88.9375 10.625 87 11 C88.32 12.65 89.64 14.3 91 16 C89.49656288 15.51486435 89.49656288 15.51486435 87.9627533 15.01992798 C84.14006174 13.93300536 80.58044664 13.72316815 76.59594727 13.68115234 C75.88142615 13.67099909 75.16690504 13.66084583 74.43073177 13.6503849 C72.14262769 13.62001362 69.85464626 13.60266968 67.56640625 13.5859375 C66.14382894 13.5689809 64.72126164 13.55116185 63.29870605 13.5324707 C58.05341877 13.46955152 52.80794262 13.42326288 47.5625 13.375 C35.826875 13.25125 24.09125 13.1275 12 13 C12 56.23 12 99.46 12 144 C8.04 144 4.08 144 0 144 C0 96.48 0 48.96 0 0 Z " fill="#A5BBD6" transform="translate(143,136)"/>
<path d="M0 0 C25.41 0 50.82 0 77 0 C77 4.29 77 8.58 77 13 C55.55 13 34.1 13 12 13 C12 22.24 12 31.48 12 41 C17.30380291 40.9718699 22.60311817 40.92871739 27.90576172 40.84741211 C29.70775346 40.82427646 31.50987957 40.80984681 33.31201172 40.80444336 C35.90937603 40.79512096 38.50464001 40.75406208 41.1015625 40.70703125 C41.9017984 40.7109639 42.7020343 40.71489655 43.52651978 40.71894836 C49.39405188 40.56736197 51.8002164 39.06687402 56 35 C60.25401781 33.74099841 63.46424481 34.71695952 67.3125 36.75 C71.10652807 39.9263956 72.78828718 41.36678682 73.4375 46.375 C72.836554 51.35426684 70.88097818 54.31554193 67.16796875 57.640625 C64.61337265 59.2424258 63.05983782 59.46305285 60.0625 59.5 C59.22847656 59.5309375 58.39445312 59.561875 57.53515625 59.59375 C55 59 55 59 53.05566406 56.50708008 C48.48790943 52.75937535 44.31967072 53.2712298 38.57421875 53.29296875 C37.59634399 53.27834595 36.61846924 53.26372314 35.61096191 53.24865723 C31.97005743 53.20140939 28.32869866 53.19699331 24.6875 53.1875 C16.540625 53.125625 8.39375 53.06375 0 53 C0 35.51 0 18.02 0 0 Z " fill="#CDE0F9" transform="translate(307,161)"/>
<path d="M0 0 C25.41 0 50.82 0 77 0 C77 4.29 77 8.58 77 13 C55.55 13 34.1 13 12 13 C12 22.24 12 31.48 12 41 C17.30380291 40.9718699 22.60311817 40.92871739 27.90576172 40.84741211 C29.70775346 40.82427646 31.50987957 40.80984681 33.31201172 40.80444336 C35.90937603 40.79512096 38.50464001 40.75406208 41.1015625 40.70703125 C41.9017984 40.7109639 42.7020343 40.71489655 43.52651978 40.71894836 C49.39405188 40.56736197 51.8002164 39.06687402 56 35 C60.25401781 33.74099841 63.46424481 34.71695952 67.3125 36.75 C71.10652807 39.9263956 72.78828718 41.36678682 73.4375 46.375 C72.836554 51.35426684 70.88097818 54.31554193 67.16796875 57.640625 C64.61337265 59.2424258 63.05983782 59.46305285 60.0625 59.5 C59.22847656 59.5309375 58.39445312 59.561875 57.53515625 59.59375 C55 59 55 59 53.05566406 56.50708008 C48.48790943 52.75937535 44.31967072 53.2712298 38.57421875 53.29296875 C37.59634399 53.27834595 36.61846924 53.26372314 35.61096191 53.24865723 C31.97005743 53.20140939 28.32869866 53.19699331 24.6875 53.1875 C16.540625 53.125625 8.39375 53.06375 0 53 C0 35.51 0 18.02 0 0 Z M2 2 C2 18.5 2 35 2 52 C11.03515249 52.37099342 11.03515249 52.37099342 18 49 C18 49.66 18 50.32 18 51 C20.39614126 51.05425226 22.79103853 51.09379027 25.1875 51.125 C25.86103516 51.14175781 26.53457031 51.15851563 27.22851562 51.17578125 C33.670749 51.23863231 37.64501227 49.36599229 43 46 C42.67 45.01 42.34 44.02 42 43 C31.44 43 20.88 43 10 43 C10 32.44 10 21.88 10 11 C13.87878906 11.10828125 13.87878906 11.10828125 17.8359375 11.21875 C37.22944123 11.74715661 56.59759882 12.15932629 76 12 C76 8.37 76 4.74 76 1 C51.30839646 0.84894548 26.68409973 1.28710181 2 2 Z " fill="#D6CEFB" transform="translate(307,161)"/>
<path d="M0 0 C0.33 0.99 0.66 1.98 1 3 C4.465 2.505 4.465 2.505 8 2 C8.02505615 2.76666992 8.0501123 3.53333984 8.07592773 4.32324219 C8.19201423 7.79899283 8.31468366 11.27448092 8.4375 14.75 C8.47681641 15.9565625 8.51613281 17.163125 8.55664062 18.40625 C8.61948242 20.14648438 8.61948242 20.14648438 8.68359375 21.921875 C8.72025146 22.99018555 8.75690918 24.05849609 8.79467773 25.15917969 C8.89585755 27.8565773 8.89585755 27.8565773 9.50474548 29.82037354 C10.11372212 32.50049364 10.12722769 34.96564024 10.12939453 37.71484375 C10.13254669 38.86283447 10.13569885 40.0108252 10.13894653 41.19360352 C10.1369223 42.42908936 10.13489807 43.6645752 10.1328125 44.9375 C10.13376923 46.20972412 10.13472595 47.48194824 10.13571167 48.79272461 C10.13639219 51.48261925 10.13504897 54.17242303 10.13037109 56.86230469 C10.12467407 60.3055435 10.12795555 63.74870435 10.13394356 67.19194031 C10.13843132 70.48212965 10.13528676 73.77230964 10.1328125 77.0625 C10.13483673 78.29798584 10.13686096 79.53347168 10.13894653 80.80639648 C10.13579437 81.95438721 10.13264221 83.10237793 10.12939453 84.28515625 C10.12859894 85.29457275 10.12780334 86.30398926 10.12698364 87.34399414 C10.01230225 89.74268464 9.62475387 91.69727507 9 94 C8.77609683 96.75317974 8.58606338 99.49305329 8.4375 102.25 C8.39431641 102.99507813 8.35113281 103.74015625 8.30664062 104.5078125 C8.20103275 106.338349 8.10005799 108.16915176 8 110 C5.0625 109.625 5.0625 109.625 2 109 C0.82573736 106.65147472 0.88491827 105.26225935 0.90234375 102.6484375 C0.90556641 101.79765625 0.90878906 100.946875 0.91210938 100.0703125 C0.92048828 99.18085938 0.92886719 98.29140625 0.9375 97.375 C0.94201172 96.4778125 0.94652344 95.580625 0.95117188 94.65625 C0.96297409 92.43743352 0.97943845 90.21874982 1 88 C0.01 88.99 0.01 88.99 -1 90 C-1.03048569 81.00001596 -1.05093494 72.00002821 -1.0625 63 C-1.06335602 62.33851204 -1.06421204 61.67702408 -1.06509399 60.99549103 C-1.08837742 40.6444567 -0.9252961 20.33190517 0 0 Z " fill="#B7C9E0" transform="translate(145,168)"/>
<path d="M0 0 C13.179375 -0.020625 26.35875 -0.04125 39.9375 -0.0625 C44.1049585 -0.071604 48.27241699 -0.08070801 52.56616211 -0.09008789 C57.63977051 -0.09460449 57.63977051 -0.09460449 60.01197815 -0.09544373 C61.67527025 -0.09698327 63.33856122 -0.10050841 65.00184631 -0.10557556 C67.51549226 -0.11285309 70.02906977 -0.11390742 72.54272461 -0.11352539 C73.66153094 -0.11892255 73.66153094 -0.11892255 74.80293941 -0.12442875 C79.88597366 -0.11402634 79.88597366 -0.11402634 81 1 C84.61386323 1.79053258 88.24247397 2.48418602 91.875 3.18359375 C92.90625 3.45300781 93.9375 3.72242188 95 4 C95.495 4.99 95.495 4.99 96 6 C95.0409375 6.433125 95.0409375 6.433125 94.0625 6.875 C91.84793921 7.82823451 91.84793921 7.82823451 91 10 C88.9375 10.625 88.9375 10.625 87 11 C88.32 12.65 89.64 14.3 91 16 C89.49656288 15.51486435 89.49656288 15.51486435 87.9627533 15.01992798 C84.14006174 13.93300536 80.58044664 13.72316815 76.59594727 13.68115234 C75.892668 13.67110672 75.18938873 13.6610611 74.46479797 13.65071106 C72.16534157 13.62008826 69.86600042 13.60290291 67.56640625 13.5859375 C65.96214317 13.56720896 64.35788977 13.54763431 62.75364685 13.5272522 C58.55011724 13.47610289 54.34655576 13.43638559 50.1428833 13.39910889 C45.84582749 13.35896089 41.54890232 13.307918 37.25195312 13.2578125 C28.83472493 13.1612571 20.41743164 13.07678769 12 13 C12 12.67 12 12.34 12 12 C12.57025909 11.99191315 13.14051819 11.98382629 13.72805786 11.97549438 C19.73183283 11.88858478 25.7353098 11.78905842 31.73876953 11.68261719 C33.97113998 11.64463309 36.20356529 11.60973053 38.43603516 11.578125 C56.30473372 11.32519687 56.30473372 11.32519687 74 9 C74.33 8.01 74.66 7.02 75 6 C58.67033697 5.2239695 42.33766181 4.58255134 26 4 C26 3.67 26 3.34 26 3 C33.59 2.67 41.18 2.34 49 2 C33.16 1.67 17.32 1.34 1 1 C1.33 40.27 1.66 79.54 2 120 C2.99 119.505 2.99 119.505 4 119 C4 126.26 4 133.52 4 141 C5.98 141.33 7.96 141.66 10 142 C9.97679687 140.89140625 9.95359375 139.7828125 9.9296875 138.640625 C9.91092423 137.17709008 9.89272463 135.71354786 9.875 134.25 C9.85824219 133.52039063 9.84148437 132.79078125 9.82421875 132.0390625 C9.78627078 127.86478602 10.08485273 125.83029454 12 122 C12 129.26 12 136.52 12 144 C8.04 144 4.08 144 0 144 C0 96.48 0 48.96 0 0 Z " fill="#95A0BE" transform="translate(143,136)"/>
<path d="M0 0 C0.84046875 -0.04898437 1.6809375 -0.09796875 2.546875 -0.1484375 C5.25 0.375 5.25 0.375 7.59765625 2.87280273 C12.37486569 6.95808773 18.43570072 6.028295 24.390625 5.93359375 C25.66798523 5.93126236 26.94534546 5.92893097 28.26141357 5.92652893 C30.96157772 5.92037872 33.6609074 5.89776783 36.36083984 5.86206055 C39.79459782 5.81697151 43.22759819 5.80204248 46.66162491 5.79832363 C49.96723249 5.79278369 53.27259241 5.7693877 56.578125 5.74609375 C58.4083017 5.7380497 58.4083017 5.7380497 60.27545166 5.72984314 C66.45447754 5.64476323 72.15378633 5.23541881 78.15252686 3.70179749 C80.48485217 3.33840878 82.02137505 3.65531111 84.25 4.375 C82.87708132 4.86009793 81.50153297 5.33775513 80.125 5.8125 C78.97644531 6.21275391 78.97644531 6.21275391 77.8046875 6.62109375 C73.01949351 8.03323815 68.34235484 8.50171213 63.36816406 8.56445312 C61.66675262 8.58952942 61.66675262 8.58952942 59.93096924 8.6151123 C58.72140564 8.62868774 57.51184204 8.64226318 56.265625 8.65625 C55.01368347 8.67465942 53.76174194 8.69306885 52.47186279 8.71203613 C47.80151835 8.78065447 43.13109771 8.841376 38.46063232 8.90106201 C33.87471136 8.96003033 29.28892803 9.02611039 24.703125 9.09375 C23.48546448 9.10732544 22.26780396 9.12090088 21.01324463 9.1348877 C19.33074615 9.15996399 19.33074615 9.15996399 17.61425781 9.18554688 C16.12916718 9.20433899 16.12916718 9.20433899 14.61407471 9.22351074 C12.23122306 9.2222631 12.23122306 9.2222631 10.25 10.375 C9.11649466 12.39169827 9.11649466 12.39169827 8.25 14.375 C7.92 12.725 7.59 11.075 7.25 9.375 C7.12625 10.468125 7.0025 11.56125 6.875 12.6875 C6.25 16.375 6.25 16.375 4.25 19.375 C2.3046875 19.66796875 2.3046875 19.66796875 0.125 19.5625 C-1.15375 19.500625 -2.4325 19.43875 -3.75 19.375 C-3.75 20.035 -3.75 20.695 -3.75 21.375 C-0.78 21.705 2.19 22.035 5.25 22.375 C3.25 24.375 3.25 24.375 0.125 24.9375 C-4.58385847 24.25395603 -6.80244418 22.82846793 -10.1953125 19.57421875 C-12.51510835 16.29269849 -12.67382433 13.69040115 -12.35546875 9.75 C-11.37229061 5.89340445 -9.65319072 4.07081995 -6.75 1.375 C-4.35961794 0.17980897 -2.66758604 0.10508672 0 0 Z " fill="#BAA2FA" transform="translate(148.75,287.625)"/>
<path d="M0 0 C25.41 0 50.82 0 77 0 C77 4.29 77 8.58 77 13 C55.55 13 34.1 13 12 13 C12 22.24 12 31.48 12 41 C24.87 40.67 37.74 40.34 51 40 C51 40.66 51 41.32 51 42 C37.35659506 43.41225633 23.70009229 43.06782224 10 43 C10 32.44 10 21.88 10 11 C32.02866068 10.90116752 53.993864 10.87559889 76 12 C76 8.37 76 4.74 76 1 C75.14398193 1.03029297 74.28796387 1.06058594 73.40600586 1.09179688 C49.58933603 1.91094287 25.83348941 2.08604148 2 2 C2 18.5 2 35 2 52 C17.84 52 33.68 52 50 52 C50 52.33 50 52.66 50 53 C33.5 53 17 53 0 53 C0 35.51 0 18.02 0 0 Z " fill="#727A8E" transform="translate(307,161)"/>
<path d="M0 0 C0 0.33 0 0.66 0 1 C-5.94 1.495 -5.94 1.495 -12 2 C-7.94318759 2.81136248 -4.48425402 3.1854348 -0.38671875 3.31640625 C0.86044922 3.35830078 2.10761719 3.40019531 3.39257812 3.44335938 C4.68615234 3.48267578 5.97972656 3.52199219 7.3125 3.5625 C9.28186523 3.62727539 9.28186523 3.62727539 11.29101562 3.69335938 C14.52724288 3.79927227 17.76354458 3.90134885 21 4 C21 4.33 21 4.66 21 5 C19.906875 5.103125 18.81375 5.20625 17.6875 5.3125 C14.09224171 5.61128177 14.09224171 5.61128177 12.56811523 7.4987793 C7.15478812 12.68117824 -7.40675417 10.02947018 -14.5965271 9.89480591 C-16.57750195 9.85137399 -18.55843013 9.80576328 -20.53930664 9.75805664 C-23.58662797 9.68693689 -26.63395598 9.63305798 -29.68164062 9.58007812 C-31.62241886 9.5374954 -33.56317547 9.49391239 -35.50390625 9.44921875 C-36.41322403 9.43453049 -37.32254181 9.41984222 -38.25941467 9.40470886 C-39.10136887 9.38161148 -39.94332306 9.3585141 -40.81079102 9.3347168 C-41.54959 9.31837692 -42.28838898 9.30203705 -43.04957581 9.28520203 C-45 9 -45 9 -48 7 C-48 5.68 -48 4.36 -48 3 C-52.455 3.495 -52.455 3.495 -57 4 C-57.33 5.65 -57.66 7.3 -58 9 C-58.33 9 -58.66 9 -59 9 C-59 6.36 -59 3.72 -59 1 C-53.32989983 0.85484049 -47.65973636 0.71257181 -41.98950195 0.57275391 C-40.06858457 0.52500736 -38.14768522 0.47652907 -36.22680664 0.42724609 C-24.1482016 0.11794291 -12.08266364 -0.07216522 0 0 Z " fill="#96AEC9" transform="translate(204,137)"/>
<path d="M0 0 C0.33 0 0.66 0 1 0 C1.33 31.68 1.66 63.36 2 96 C2.66 96.33 3.32 96.66 4 97 C4 102.94 4 108.88 4 115 C9.95905361 115.04971295 15.91798449 115.0858671 21.87719727 115.10986328 C23.90130722 115.11987483 25.92540289 115.1334881 27.94946289 115.15087891 C30.87129256 115.17534141 33.79292978 115.18653184 36.71484375 115.1953125 C37.60896469 115.20563507 38.50308563 115.21595764 39.42430115 115.22659302 C45.73611727 115.22770144 52.2600821 114.86995895 58 112 C58.99 112.495 58.99 112.495 60 113 C60 112.34 60 111.68 60 111 C60.84884766 110.63648438 60.84884766 110.63648438 61.71484375 110.265625 C62.81505859 109.76289063 62.81505859 109.76289063 63.9375 109.25 C65.03384766 108.76273438 65.03384766 108.76273438 66.15234375 108.265625 C68.47819597 106.67244082 68.42244516 105.67052882 69 103 C72.20883825 101.04679411 74.2205439 100 78 100 C75.85681568 106.79661767 70.07203403 110.74569656 63.99609375 114.109375 C42.96573451 123.33074057 27.25400841 118 0 118 C0 79.06 0 40.12 0 0 Z " fill="#657080" transform="translate(170,162)"/>
<path d="M0 0 C12.05526992 -0.43573265 12.05526992 -0.43573265 16 3 C18.47092491 6.70638736 18.55407837 9.70169504 18 14 C16.36312815 17.58552881 15.31027417 18.79315055 12 21 C7.98500069 21.26874159 4.02862593 21.08663712 0 21 C0 14.07 0 7.14 0 0 Z " fill="#F7F7F7" transform="translate(129,342)"/>
<path d="M0 0 C26.4 0 52.8 0 80 0 C80 0.33 80 0.66 80 1 C53.93 1 27.86 1 1 1 C1.33 40.27 1.66 79.54 2 120 C2.99 119.505 2.99 119.505 4 119 C4 126.26 4 133.52 4 141 C5.98 141.33 7.96 141.66 10 142 C9.97679687 140.89140625 9.95359375 139.7828125 9.9296875 138.640625 C9.91092423 137.17709008 9.89272463 135.71354786 9.875 134.25 C9.85824219 133.52039063 9.84148437 132.79078125 9.82421875 132.0390625 C9.78627078 127.86478602 10.08485273 125.83029454 12 122 C12 129.26 12 136.52 12 144 C8.04 144 4.08 144 0 144 C0 96.48 0 48.96 0 0 Z " fill="#677383" transform="translate(143,136)"/>
<path d="M0 0 C39 0 39 0 44 2 C42 3 42 3 32 2 C21.77 1.67 11.54 1.34 1 1 C1 32.02 1 63.04 1 95 C24.29244401 96.17432417 24.29244401 96.17432417 46 91 C48.875 91.3125 48.875 91.3125 51 92 C48.5845346 95.45066486 46.22822953 96.40381869 42.25 97.1875 C31.01072049 98.8481851 19.95401291 99.15640009 8.625 98.6875 C7.24175537 98.63565552 7.24175537 98.63565552 5.83056641 98.58276367 C4.54158447 98.51665894 4.54158447 98.51665894 3.2265625 98.44921875 C2.45908691 98.41143311 1.69161133 98.37364746 0.90087891 98.3347168 C-1 98 -1 98 -3 96 C-2.9765625 93.3984375 -2.9765625 93.3984375 -2.625 90.375 C-2.51414063 89.37210937 -2.40328125 88.36921875 -2.2890625 87.3359375 C-2.19367188 86.56507813 -2.09828125 85.79421875 -2 85 C-1.67 85 -1.34 85 -1 85 C-0.67 56.95 -0.34 28.9 0 0 Z " fill="#646F80" transform="translate(182,173)"/>
<path d="M0 0 C3.38976245 1.92751198 6.52667441 3.96358299 9 7 C9.82921863 11.0148002 9.9150441 15.21711646 8.015625 18.91796875 C5.78746134 21.70317333 3.42727169 23.96143282 0 25 C-4.67460102 25.49729798 -7.17571334 24.69949646 -11 22 C-8.21155162 20.60577581 -5.96567945 21.30413331 -2.97265625 21.74609375 C-0.83557926 22.06382987 -0.83557926 22.06382987 2 22 C2.12375 21.071875 2.12375 21.071875 2.25 20.125 C3 18 3 18 7 16 C7 13.03 7 10.06 7 7 C6.34 7 5.68 7 5 7 C4.87882812 7.69867188 4.75765625 8.39734375 4.6328125 9.1171875 C4.38144531 10.48230469 4.38144531 10.48230469 4.125 11.875 C3.96257812 12.77992188 3.80015625 13.68484375 3.6328125 14.6171875 C3 17 3 17 1 19 C-1.32275177 19.40047444 -3.65739357 19.7397104 -6 20 C-6.33 18.68 -6.66 17.36 -7 16 C-7.99 16 -8.98 16 -10 16 C-10.125 12.625 -10.125 12.625 -10 9 C-7.50600835 6.50600835 -6.38557427 6.67067912 -2.9375 6.4375 C0.33839564 6.46018047 0.33839564 6.46018047 3 5 C-0.5486135 2.63425766 -1.5764525 2.89134735 -5.6875 3.375 C-6.68136719 3.48585937 -7.67523438 3.59671875 -8.69921875 3.7109375 C-9.45847656 3.80632812 -10.21773438 3.90171875 -11 4 C-7.43363078 0.27152309 -5.24493402 -0.50432058 0 0 Z " fill="#AE98EC" transform="translate(381,130)"/>
<path d="M0 0 C11.46740947 -0.36991643 11.46740947 -0.36991643 13.8671875 1.296875 C15.75297707 4.13206208 15.28930657 6.70190508 15 10 C14.608125 10.66 14.21625 11.32 13.8125 12 C12.62559044 14.27894074 12.62559044 14.27894074 14.375 17.75 C14.91125 18.8225 15.4475 19.895 16 21 C14.35 21 12.7 21 11 21 C8 15.25 8 15.25 8 13 C6.68 13 5.36 13 4 13 C4 15.64 4 18.28 4 21 C2.68 21 1.36 21 0 21 C0 14.07 0 7.14 0 0 Z " fill="#EFEFEF" transform="translate(155,342)"/>
<path d="M0 0 C10.33431323 -0.36908262 10.33431323 -0.36908262 13.33203125 1.29296875 C15 3 15 3 15.4375 6.5 C15 10 15 10 13.5 11.9375 C13.005 12.288125 12.51 12.63875 12 13 C12.495 13.94875 12.99 14.8975 13.5 15.875 C15 19 15 19 15 21 C12.625 20.75 12.625 20.75 10 20 C8.2058242 17.43689172 8 16.16880694 8 13 C6.68 13 5.36 13 4 13 C4 15.64 4 18.28 4 21 C2.68 21 1.36 21 0 21 C0 14.07 0 7.14 0 0 Z " fill="#F5F5F5" transform="translate(334,342)"/>
<path d="M0 0 C11.28219852 5.56439705 11.28219852 5.56439705 13 9 C12.236875 8.896875 11.47375 8.79375 10.6875 8.6875 C7.79113257 8.70704406 7.79113257 8.70704406 6.125 11.3125 C4.64293424 14.02550974 4.64293424 14.02550974 6 17 C6.66 17 7.32 17 8 17 C7.67 17.66 7.34 18.32 7 19 C-3.25390625 13.140625 -3.25390625 13.140625 -5.11376953 12.06835938 C-6.39578135 11.34222894 -7.68909444 10.63577161 -8.99169922 9.94726562 C-13.89467593 7.31597222 -13.89467593 7.31597222 -15 4 C-13.35 3.34 -11.7 2.68 -10 2 C-10 1.34 -10 0.68 -10 0 C-6.62315992 -1.68842004 -3.49396532 -0.99749712 0 0 Z " fill="#AFB0DE" transform="translate(244,143)"/>
<path d="M0 0 C25.41 0 50.82 0 77 0 C77.99 1.98 77.99 1.98 79 4 C78.01 3.505 78.01 3.505 77 3 C74.59026385 2.87802512 72.20745118 2.81440406 69.79638672 2.79467773 C69.0548233 2.78477814 68.31325989 2.77487854 67.54922485 2.76467896 C65.09274512 2.73303637 62.63624603 2.70829569 60.1796875 2.68359375 C58.478602 2.6630266 56.77752164 2.64203019 55.07644653 2.62062073 C50.59499264 2.56537536 46.11349244 2.51597697 41.63195801 2.46777344 C36.25712508 2.4087538 30.88237695 2.34251228 25.50761414 2.27747345 C17.33846113 2.17943291 9.16925422 2.09059815 1 2 C1 22.13 1 42.26 1 63 C-0.32 61.68 -1.64 60.36 -3 59 C-2.01 58.505 -2.01 58.505 -1 58 C-0.67 38.86 -0.34 19.72 0 0 Z " fill="#9B88DE" transform="translate(292,147)"/>
<path d="M0 0 C4 4 4 4 4.5 7.375 C3.81612209 12.33311484 1.86842206 15.30799547 -1.8203125 18.6484375 C-4.44618601 20.27666731 -6.05645762 20.40247948 -9.125 20.375 C-10.42824219 20.38660156 -10.42824219 20.38660156 -11.7578125 20.3984375 C-12.49773437 20.26695312 -13.23765625 20.13546875 -14 20 C-14.66 19.01 -15.32 18.02 -16 17 C-14.02 17.33 -12.04 17.66 -10 18 C-10.66 17.505 -11.32 17.01 -12 16.5 C-14.12046898 13.84941377 -14.33618214 13.17371169 -14.4375 9.9375 C-14 6 -14 6 -12.8125 4 C-10.31850076 2.62400042 -8.81252143 2.5884115 -6 3 C-3.6875 4.125 -3.6875 4.125 -2 6 C-1.75 9.1875 -1.75 9.1875 -2 12 C-1.01 12 -0.02 12 1 12 C0.67 8.04 0.34 4.08 0 0 Z " fill="#C3AAEF" transform="translate(376,200)"/>
<path d="M0 0 C0.495 1.98 0.495 1.98 1 4 C-27.71 4 -56.42 4 -86 4 C-86.33 16.87 -86.66 29.74 -87 43 C-87.33 43 -87.66 43 -88 43 C-88.02464705 37.32169922 -88.04283462 31.64342931 -88.05493164 25.96508789 C-88.05997256 24.03181415 -88.06680519 22.09854424 -88.07543945 20.1652832 C-88.08751565 17.39273128 -88.09323057 14.62022959 -88.09765625 11.84765625 C-88.10281754 10.97786636 -88.10797882 10.10807648 -88.11329651 9.21192932 C-88.11349185 7.14094186 -88.06208168 5.07005676 -88 3 C-85.97357339 0.97357339 -81.79103214 1.82512284 -79.0078125 1.81054688 C-77.7517923 1.79810692 -77.7517923 1.79810692 -76.47039795 1.78541565 C-74.64628013 1.76797589 -72.82213941 1.75281993 -70.99798584 1.73963928 C-68.11594662 1.71868417 -65.23402266 1.6916564 -62.35205078 1.66296387 C-55.19366127 1.59298023 -48.03519001 1.53367127 -40.87670898 1.47393799 C-34.83228737 1.42309772 -28.7879274 1.36829734 -22.74359131 1.30812073 C-19.89564824 1.28144342 -17.04769978 1.26069082 -14.19970703 1.2401123 C-12.46386438 1.22351651 -10.72802434 1.20664531 -8.9921875 1.18945312 C-8.19319031 1.18526871 -7.39419312 1.18108429 -6.57098389 1.17677307 C-2.98833202 1.46675638 -2.98833202 1.46675638 0 0 Z " fill="#7563AA" transform="translate(369,134)"/>
<path d="M0 0 C1.58525836 3.17051672 0.54257255 6.25474316 0.05859375 9.6875 C0.02958984 10.8321875 0.02958984 10.8321875 0 12 C0.66 12.66 1.32 13.32 2 14 C2.103125 12.741875 2.20625 11.48375 2.3125 10.1875 C2.64232322 7.63475861 2.87376254 6.20197994 4.25 4 C6.6759994 2.61371463 8.24256427 2.66372735 11 3 C13.3125 4 13.3125 4 15 5 C15.25 12.625 15.25 12.625 13 16 C11.0546875 16.29296875 11.0546875 16.29296875 8.875 16.1875 C7.59625 16.125625 6.3175 16.06375 5 16 C5 16.66 5 17.32 5 18 C7.97 18.33 10.94 18.66 14 19 C12 21 12 21 8.875 21.5625 C4.16571458 20.87889405 1.95162728 19.44682461 -1.453125 16.20703125 C-3.75284748 12.92586155 -3.75299132 10.24653407 -3.57421875 6.33203125 C-2.91019819 3.63529467 -1.79398191 2.09217729 0 0 Z " fill="#9E8AE3" transform="translate(140,291)"/>
<path d="M0 0 C1.32 0 2.64 0 4 0 C4.33 5.28 4.66 10.56 5 16 C6.65 16.33 8.3 16.66 10 17 C12.05922402 14.94077598 11.41427579 10.78291876 11.5625 7.9375 C11.60568359 7.17888672 11.64886719 6.42027344 11.69335938 5.63867188 C11.79973633 3.75934562 11.90039934 1.87969756 12 0 C13.65 0 15.3 0 17 0 C17.08139142 2.39652528 17.14067009 4.79025436 17.1875 7.1875 C17.21263672 7.86103516 17.23777344 8.53457031 17.26367188 9.22851562 C17.32907182 13.69751197 16.75630065 16.45618488 14 20 C10.87057535 21.56471233 7.38917777 21.69701958 4 21 C1.7578125 19.52734375 1.7578125 19.52734375 0 17 C-0.47921552 14.06545704 -0.37776628 11.21319479 -0.25 8.25 C-0.23195313 7.45722656 -0.21390625 6.66445313 -0.1953125 5.84765625 C-0.14833082 3.89791652 -0.07659044 1.94880122 0 0 Z " fill="#DFDFDF" transform="translate(309,342)"/>
<path d="M0 0 C1.32 0 2.64 0 4 0 C4.33 5.28 4.66 10.56 5 16 C6.65 16.33 8.3 16.66 10 17 C12.05922402 14.94077598 11.41427579 10.78291876 11.5625 7.9375 C11.60568359 7.17888672 11.64886719 6.42027344 11.69335938 5.63867188 C11.79973633 3.75934562 11.90039934 1.87969756 12 0 C13.65 0 15.3 0 17 0 C17.08139142 2.39652528 17.14067009 4.79025436 17.1875 7.1875 C17.21263672 7.86103516 17.23777344 8.53457031 17.26367188 9.22851562 C17.32907182 13.69751197 16.75630065 16.45618488 14 20 C10.87057535 21.56471233 7.38917777 21.69701958 4 21 C1.7578125 19.52734375 1.7578125 19.52734375 0 17 C-0.47921552 14.06545704 -0.37776628 11.21319479 -0.25 8.25 C-0.23195313 7.45722656 -0.21390625 6.66445313 -0.1953125 5.84765625 C-0.14833082 3.89791652 -0.07659044 1.94880122 0 0 Z " fill="#DFDFDF" transform="translate(261,342)"/>
<path d="M0 0 C4.62 0 9.24 0 14 0 C14 0.99 14 1.98 14 3 C11.03 3 8.06 3 5 3 C5 4.65 5 6.3 5 8 C7.97 8 10.94 8 14 8 C14 9.32 14 10.64 14 12 C11.03 12 8.06 12 5 12 C5 13.98 5 15.96 5 18 C7.97 18 10.94 18 14 18 C14 18.99 14 19.98 14 21 C9.38 21 4.76 21 0 21 C0 14.07 0 7.14 0 0 Z " fill="#DCDCDC" transform="translate(357,342)"/>
<path d="M0 0 C4.62 0 9.24 0 14 0 C14 0.99 14 1.98 14 3 C10.7 3 7.4 3 4 3 C4 4.98 4 6.96 4 9 C6.97 9 9.94 9 13 9 C13 9.99 13 10.98 13 12 C10.03 12 7.06 12 4 12 C4 13.98 4 15.96 4 18 C7.3 18 10.6 18 14 18 C14 18.99 14 19.98 14 21 C9.38 21 4.76 21 0 21 C0 14.07 0 7.14 0 0 Z " fill="#F3F3F3" transform="translate(217,342)"/>
<path d="M0 0 C0.33 0.66 0.66 1.32 1 2 C1.87914062 1.90847656 2.75828125 1.81695312 3.6640625 1.72265625 C7.95108609 2.07907156 9.31170347 3.48919208 12.375 6.4375 C13.24898438 7.26121094 14.12296875 8.08492187 15.0234375 8.93359375 C17 11 17 11 17 12 C16.236875 11.896875 15.47375 11.79375 14.6875 11.6875 C13.800625 11.790625 12.91375 11.89375 12 12 C10.02493835 14.60990289 9.0343299 16.89701029 8 20 C6.82438854 18.90536178 5.6597511 17.79892814 4.5 16.6875 C3.8503125 16.07261719 3.200625 15.45773438 2.53125 14.82421875 C1 13 1 13 1 10 C0.34 10 -0.32 10 -1 10 C-2.625 8 -2.625 8 -4 6 C-3.01 5.34 -2.02 4.68 -1 4 C-0.27617533 1.94074861 -0.27617533 1.94074861 0 0 Z " fill="#C7B7F6" transform="translate(251,150)"/>
<path d="M0 0 C13.2 0 26.4 0 40 0 C40 0.33 40 0.66 40 1 C27.46 1 14.92 1 2 1 C2 10.57 2 20.14 2 30 C14.87 29.67 27.74 29.34 41 29 C41 29.66 41 30.32 41 31 C27.35659506 32.41225633 13.70009229 32.06782224 0 32 C0 21.44 0 10.88 0 0 Z " fill="#909CB6" transform="translate(317,172)"/>
<path d="M0 0 C1.65 0 3.3 0 5 0 C5.67220351 1.93558599 6.33758077 3.87354372 7 5.8125 C7.556875 7.43091797 7.556875 7.43091797 8.125 9.08203125 C9 12 9 12 9 15 C9.66 15 10.32 15 11 15 C11.12246094 14.28457031 11.24492187 13.56914062 11.37109375 12.83203125 C12.01135375 9.94887287 12.93551556 7.41407527 14.0625 4.6875 C14.60583984 3.36298828 14.60583984 3.36298828 15.16015625 2.01171875 C15.43730469 1.34785156 15.71445313 0.68398438 16 0 C17.32 0.33 18.64 0.66 20 1 C17.69 7.6 15.38 14.2 13 21 C11.02 21 9.04 21 7 21 C4.69 14.07 2.38 7.14 0 0 Z " fill="#ECECEC" transform="translate(190,342)"/>
<path d="M0 0 C22.44 0 44.88 0 68 0 C68 0.33 68 0.66 68 1 C45.89 1 23.78 1 1 1 C1 15.52 1 30.04 1 45 C0.01 44.67 -0.98 44.34 -2 44 C-3.1875 40.9375 -3.1875 40.9375 -4 38 C-3.01 38.33 -2.02 38.66 -1 39 C-1.00523682 37.88963379 -1.01047363 36.77926758 -1.01586914 35.63525391 C-1.03393985 31.52409671 -1.04543962 27.41294304 -1.05493164 23.30175781 C-1.05996711 21.52082733 -1.06679581 19.739901 -1.07543945 17.95898438 C-1.08753942 15.40233335 -1.09323609 12.84573688 -1.09765625 10.2890625 C-1.10281754 9.49005524 -1.10797882 8.69104797 -1.11329651 7.86782837 C-1.11387171 2.22774341 -1.11387171 2.22774341 0 0 Z " fill="#C7B2FB" transform="translate(283,138)"/>
<path d="M0 0 C4.62 0 9.24 0 14 0 C14 0.99 14 1.98 14 3 C10.7 3 7.4 3 4 3 C4 4.98 4 6.96 4 9 C6.64 9 9.28 9 12 9 C12 9.99 12 10.98 12 12 C9.36 12 6.72 12 4 12 C4 14.97 4 17.94 4 21 C2.68 21 1.36 21 0 21 C0 14.07 0 7.14 0 0 Z " fill="#E9E9E9" transform="translate(239,342)"/>
<path d="M0 0 C6 0 6 0 8.375 1 C10.48205268 3.5932956 10.56430314 5.77361313 10.3828125 9.05859375 C10 11 10 11 8.375 13.5 C6 15 6 15 0 15 C0 10.05 0 5.1 0 0 Z " fill="#0C0C0C" transform="translate(133,345)"/>
<path d="M0 0 C2.875 1.0625 2.875 1.0625 5 3 C6.95185388 7.70219344 7.20181665 11.07255174 6 16 C5.01 16 4.02 16 3 16 C3 14.02 3 12.04 3 10 C-0.11598788 8.15348866 -2.38245897 7.61920621 -6 8 C-7.95216435 9.95216435 -8.84826645 11.53199953 -10 14 C-10.33 12.35 -10.66 10.7 -11 9 C-6.25 5 -6.25 5 -4 5 C-4 4.34 -4 3.68 -4 3 C-6.31 3 -8.62 3 -11 3 C-8.3186537 -1.02201945 -4.35178263 -0.60346986 0 0 Z " fill="#C5B2EB" transform="translate(371,196)"/>
<path d="M0 0 C0.66 0.33 1.32 0.66 2 1 C-0.14318432 7.79661767 -5.92796597 11.74569656 -12.00390625 15.109375 C-13.63464617 15.8244198 -15.31734045 16.41754092 -17 17 C-18.36125 17.5878125 -18.36125 17.5878125 -19.75 18.1875 C-24.49369 19.3734225 -29.1360472 19.15578496 -34 19 C-33.67 18.34 -33.34 17.68 -33 17 C-30.87606196 16.39605027 -28.72384773 15.88965489 -26.5625 15.4375 C-22.15314156 14.58838289 -22.15314156 14.58838289 -18 13 C-17.34 13.33 -16.68 13.66 -16 14 C-16 13.34 -16 12.68 -16 12 C-15.43410156 11.75765625 -14.86820313 11.5153125 -14.28515625 11.265625 C-13.18494141 10.76289063 -13.18494141 10.76289063 -12.0625 10.25 C-11.33160156 9.92515625 -10.60070312 9.6003125 -9.84765625 9.265625 C-7.52107625 7.67194229 -7.58861745 6.66733855 -7 4 C-4 2.3125 -4 2.3125 -1 1 C-0.67 0.67 -0.34 0.34 0 0 Z " fill="#768196" transform="translate(246,261)"/>
<path d="M0 0 C5.28 0 10.56 0 16 0 C16 0.99 16 1.98 16 3 C14.02 3 12.04 3 10 3 C10 8.94 10 14.88 10 21 C8.68 21 7.36 21 6 21 C6 15.06 6 9.12 6 3 C4.02 3 2.04 3 0 3 C0 2.01 0 1.02 0 0 Z " fill="#F9F9F9" transform="translate(285,342)"/>
<path d="M0 0 C0.66 0 1.32 0 2 0 C2 12.87 2 25.74 2 39 C1.34 39 0.68 39 0 39 C-0.33 28.77 -0.66 18.54 -1 8 C-3.97 10.475 -3.97 10.475 -7 13 C-7.66 13 -8.32 13 -9 13 C-9 13.66 -9 14.32 -9 15 C-9.66 14.67 -10.32 14.34 -11 14 C-9.21568681 11.66069977 -7.42315931 9.3286163 -5.625 7 C-5.11710937 6.33226562 -4.60921875 5.66453125 -4.0859375 4.9765625 C-3.35117187 4.02910156 -3.35117187 4.02910156 -2.6015625 3.0625 C-2.15119629 2.47597656 -1.70083008 1.88945312 -1.23681641 1.28515625 C-0.82866699 0.86105469 -0.42051758 0.43695313 0 0 Z " fill="#B49EFA" transform="translate(291,232)"/>
<path d="M0 0 C2.5625 0.3125 2.5625 0.3125 4.4375 1.375 C6.21032183 4.42819315 5.25485306 6.97661708 4.5625 10.3125 C2.2525 10.6425 -0.0575 10.9725 -2.4375 11.3125 C-4.73913882 7.86004176 -4.78240322 6.36511287 -4.4375 2.3125 C-2.4375 0.3125 -2.4375 0.3125 0 0 Z " fill="#0B0812" transform="translate(148.4375,293.6875)"/>
<path d="M0 0 C0.66 0 1.32 0 2 0 C2 3.3 2 6.6 2 10 C12.89 10 23.78 10 35 10 C35.495 10.99 35.495 10.99 36 12 C24.12 12 12.24 12 0 12 C0 8.04 0 4.08 0 0 Z " fill="#B19DF6" transform="translate(282,293)"/>
<path d="M0 0 C0.66 0 1.32 0 2 0 C2 13.53 2 27.06 2 41 C1.34 41 0.68 41 0 41 C-0.33 29.12 -0.66 17.24 -1 5 C-1.99 5 -2.98 5 -4 5 C-2.71937515 3.2925002 -1.38232443 1.62626404 0 0 Z " fill="#40345A" transform="translate(280,264)"/>
<path d="M0 0 C2.5625 0.3125 2.5625 0.3125 4.375 1.5 C5.96449375 3.9260694 5.92737512 5.46647406 5.5625 8.3125 C3.5625 10.3125 3.5625 10.3125 0.0625 10.625 C-1.67 10.4703125 -1.67 10.4703125 -3.4375 10.3125 C-5.4375 7.3125 -5.4375 7.3125 -5.1875 4.75 C-4.19253762 1.51637226 -3.41216263 0.43745675 0 0 Z " fill="#110D18" transform="translate(367.4375,202.6875)"/>
<path d="M0 0 C-8.08399348 3.38100451 -15.70342205 3.39036743 -24.31640625 3.29296875 C-25.78327497 3.28736283 -27.25014937 3.28309745 -28.71702576 3.28010559 C-32.54920376 3.26873501 -36.38103233 3.23933665 -40.21307373 3.20599365 C-44.13483963 3.17512323 -48.05666284 3.16156425 -51.97851562 3.14648438 C-59.65250183 3.114458 -67.32620167 3.06335808 -75 3 C-74.67 2.01 -74.34 1.02 -74 0 C-73.67 0.33 -73.34 0.66 -73 1 C-71.21209981 1.10426632 -69.42007568 1.13854285 -67.62915039 1.14526367 C-65.90584251 1.15483345 -65.90584251 1.15483345 -64.14772034 1.16459656 C-62.89369919 1.16570938 -61.63967804 1.1668222 -60.34765625 1.16796875 C-58.4210038 1.17296135 -58.4210038 1.17296135 -56.45542908 1.17805481 C-53.72573001 1.18405771 -50.99606263 1.1858939 -48.26635742 1.18530273 C-44.7932979 1.1852019 -41.32044648 1.1987661 -37.84743595 1.21607494 C-34.51417366 1.22998773 -31.18094712 1.22928752 -27.84765625 1.23046875 C-25.99395164 1.24124702 -25.99395164 1.24124702 -24.10279846 1.25224304 C-17.86290159 1.23593555 -12.14722399 0.89338319 -6.09129333 -0.66825867 C-3.75998457 -1.03807359 -2.2282873 -0.72000276 0 0 Z " fill="#937FED" transform="translate(233,292)"/>
<path d="M0 0 C3.4375 0.1875 3.4375 0.1875 4.4375 1.1875 C4.625 4.625 4.625 4.625 4.4375 8.1875 C2.4375 10.1875 2.4375 10.1875 0 10.5 C-2.5625 10.1875 -2.5625 10.1875 -4.375 9 C-5.96449375 6.5739306 -5.92737512 5.03352594 -5.5625 2.1875 C-3.5625 0.1875 -3.5625 0.1875 0 0 Z " fill="#0B0911" transform="translate(378.5625,137.8125)"/>
<path d="M0 0 C1.32 0 2.64 0 4 0 C4 6.93 4 13.86 4 21 C2.68 21 1.36 21 0 21 C0 14.07 0 7.14 0 0 Z " fill="#EDEDED" transform="translate(179,342)"/>
<path d="M0 0 C0.66 0.33 1.32 0.66 2 1 C1.22914063 1.81984375 0.45828125 2.6396875 -0.3359375 3.484375 C-1.34919887 4.57269277 -2.36220641 5.6612469 -3.375 6.75 C-3.88289063 7.28882813 -4.39078125 7.82765625 -4.9140625 8.3828125 C-7.85144326 11.53511554 -7.85144326 11.53511554 -10.0390625 15.21484375 C-11.45200676 17.83970362 -13.35272269 18.53888258 -16 19.8125 C-16.886875 20.25207031 -17.77375 20.69164062 -18.6875 21.14453125 C-19.450625 21.42683594 -20.21375 21.70914062 -21 22 C-21.66 21.67 -22.32 21.34 -23 21 C-22.19175781 20.26394531 -21.38351563 19.52789062 -20.55078125 18.76953125 C-19.47129779 17.78391591 -18.39187388 16.79823535 -17.3125 15.8125 C-16.51682617 15.08836914 -16.51682617 15.08836914 -15.70507812 14.34960938 C-13.18761242 12.04836772 -10.72526216 9.72526216 -8.3125 7.3125 C-5.66890064 4.66890064 -2.89703506 2.3580518 0 0 Z " fill="#9FB0CB" transform="translate(252,244)"/>
<path d="M0 0 C2.375 1.5 2.375 1.5 4 3 C3.67 3.99 3.34 4.98 3 6 C2.67 5.67 2.34 5.34 2 5 C-0.19050021 5.09017996 -2.378466 5.24666208 -4.5625 5.4375 C-5.76003906 5.53933594 -6.95757812 5.64117187 -8.19140625 5.74609375 C-9.11824219 5.82988281 -10.04507812 5.91367188 -11 6 C-11 4.68 -11 3.36 -11 2 C-7.17773189 0.2012856 -4.22194982 -0.4491436 0 0 Z M-30 6 C-23.73 6 -17.46 6 -11 6 C-11 6.33 -11 6.66 -11 7 C-17.27 7 -23.54 7 -30 7 C-30 6.67 -30 6.34 -30 6 Z " fill="#D2B8FC" transform="translate(381,132)"/>
<path d="M0 0 C0.33 0 0.66 0 1 0 C1 19.47 1 38.94 1 59 C-4 57 -4 57 -6 54 C-2.125 54.875 -2.125 54.875 -1 56 C-0.67 37.52 -0.34 19.04 0 0 Z " fill="#C5ADFA" transform="translate(291,147)"/>
<path d="M0 0 C0.33 0.66 0.66 1.32 1 2 C0.67 2.99 0.34 3.98 0 5 C3.96 5 7.92 5 12 5 C12 5.99 12 6.98 12 8 C12.66 8.33 13.32 8.66 14 9 C13.01 9 12.02 9 11 9 C10.505 7.515 10.505 7.515 10 6 C-2.54 6 -15.08 6 -28 6 C-24 3 -24 3 -22 3 C-22 3.66 -22 4.32 -22 5 C-19.60325733 4.88543872 -17.20818782 4.75871281 -14.8125 4.625 C-14.13896484 4.5940625 -13.46542969 4.563125 -12.77148438 4.53125 C-7.64795646 4.23133617 -3.69988075 3.69988075 0 0 Z " fill="#C6C4F5" transform="translate(347,207)"/>
<path d="M0 0 C4 4 4 4 4.5 7.375 C3.92531942 11.54143424 2.56329124 13.7157831 0 17 C-0.33 15.68 -0.66 14.36 -1 13 C-1.66 13 -2.32 13 -3 13 C-3 13.66 -3 14.32 -3 15 C-5.31 15 -7.62 15 -10 15 C-10.33 14.34 -10.66 13.68 -11 13 C-8.69 12.34 -6.38 11.68 -4 11 C-3.67 9.35 -3.34 7.7 -3 6 C-2.67 6 -2.34 6 -2 6 C-2 7.98 -2 9.96 -2 12 C-1.01 12 -0.02 12 1 12 C0.67 8.04 0.34 4.08 0 0 Z " fill="#BCA3F4" transform="translate(376,200)"/>
<path d="M0 0 C0.66 0.33 1.32 0.66 2 1 C0.63065813 5.37577401 -1.22980519 7.43540918 -4.8125 10.25 C-6.09060547 11.27867187 -6.09060547 11.27867187 -7.39453125 12.328125 C-10.03000153 14.01925136 -11.91914782 14.6238816 -15 15 C-13.31736973 13.31736973 -11.63433277 11.66659753 -9.875 10.0625 C-7.84808165 8.19854676 -7.84808165 8.19854676 -7.625 5.9375 C-7 4 -7 4 -4 2.3125 C-3.01 1.879375 -2.02 1.44625 -1 1 C-0.67 0.67 -0.34 0.34 0 0 Z " fill="#8E99B2" transform="translate(246,261)"/>
<path d="M0 0 C7.85924662 0.15113936 13.6130452 3.57511771 20 8 C20.33 8.66 20.66 9.32 21 10 C18.6875 10.1875 18.6875 10.1875 16 10 C15 9 14 8 13 7 C10.69011685 6.25613932 8.35684056 5.57809297 6 5 C6 4.34 6 3.68 6 3 C5.195625 2.87625 4.39125 2.7525 3.5625 2.625 C2.716875 2.41875 1.87125 2.2125 1 2 C0.67 1.34 0.34 0.68 0 0 Z " fill="#A89BE0" transform="translate(236,142)"/>
<path d="M0 0 C2.66666667 0.66666667 5.33333333 1.33333333 8 2 C8 2.66 8 3.32 8 4 C8.66 4.33 9.32 4.66 10 5 C9.2575 5.144375 8.515 5.28875 7.75 5.4375 C5.10519665 5.91221978 5.10519665 5.91221978 3.0625 6.6875 C0.04135382 7.14524942 -2.19765325 6.08272488 -5 5 C-3.74458443 2.48916886 -2.49936512 2.12874554 0 1 C0 0.67 0 0.34 0 0 Z " fill="#A4BAD3" transform="translate(234,143)"/>
<path d="M0 0 C0.33 0 0.66 0 1 0 C1 13.53 1 27.06 1 41 C0.34 41 -0.32 41 -1 41 C-1.66 39.35 -2.32 37.7 -3 36 C-2.01 36.33 -1.02 36.66 0 37 C0 24.79 0 12.58 0 0 Z " fill="#A895F6" transform="translate(282,140)"/>
<path d="M0 0 C1.99954746 -0.04254356 4.00041636 -0.04080783 6 0 C7 1 7 1 7.125 3.5 C7 6 7 6 6 7 C4.00041636 7.04080783 1.99954746 7.04254356 0 7 C0 4.69 0 2.38 0 0 Z " fill="#131313" transform="translate(338,345)"/>
<path d="M0 0 C1.99954746 -0.04254356 4.00041636 -0.04080783 6 0 C7 1 7 1 7.125 3.5 C7 6 7 6 6 7 C4.00041636 7.04080783 1.99954746 7.04254356 0 7 C0 4.69 0 2.38 0 0 Z " fill="#171717" transform="translate(159,345)"/>
<path d="M0 0 C4.95769796 -0.29162929 8.02806853 -0.12940055 12 3 C12 3.66 12 4.32 12 5 C12.99 5.33 13.98 5.66 15 6 C15 6.66 15 7.32 15 8 C15.66 8 16.32 8 17 8 C16.67 8.66 16.34 9.32 16 10 C13.70604107 8.71226848 11.41483216 7.42003228 9.125 6.125 C8.47402344 5.76019531 7.82304687 5.39539063 7.15234375 5.01953125 C4.49606646 3.51339464 2.16980999 2.16980999 0 0 Z " fill="#9C8FD5" transform="translate(235,152)"/>
<path d="M0 0 C0.66 0 1.32 0 2 0 C2 1.32 2 2.64 2 4 C1.01 4 0.02 4 -1 4 C-1.061875 4.7425 -1.12375 5.485 -1.1875 6.25 C-2.25149912 9.85122777 -3.91370672 10.96756296 -7 13 C-7.66 13 -8.32 13 -9 13 C-9 13.66 -9 14.32 -9 15 C-9.66 14.67 -10.32 14.34 -11 14 C-9.21568681 11.66069977 -7.42315931 9.3286163 -5.625 7 C-5.11710937 6.33226562 -4.60921875 5.66453125 -4.0859375 4.9765625 C-3.35117187 4.02910156 -3.35117187 4.02910156 -2.6015625 3.0625 C-2.15119629 2.47597656 -1.70083008 1.88945312 -1.23681641 1.28515625 C-0.82866699 0.86105469 -0.42051758 0.43695313 0 0 Z " fill="#9A88DF" transform="translate(291,232)"/>
<path d="M0 0 C2 1 2 1 3.1875 4.1875 C3.99163947 7.96076983 3.90372567 10.29472477 3 14 C2.01 14 1.02 14 0 14 C-0.66 10.7 -1.32 7.4 -2 4 C-1.01 4 -0.02 4 1 4 C0.67 2.68 0.34 1.36 0 0 Z " fill="#D3B9FA" transform="translate(374,198)"/>
<path d="M0 0 C0.66 0 1.32 0 2 0 C2 7.59 2 15.18 2 23 C1.67 23 1.34 23 1 23 C1 16.73 1 10.46 1 4 C-0.65 5.65 -2.3 7.3 -4 9 C-4.99 9.495 -4.99 9.495 -6 10 C-6 9.01 -6 8.02 -6 7 C-5.34 7 -4.68 7 -4 7 C-3.71125 6.401875 -3.4225 5.80375 -3.125 5.1875 C-2 3 -2 3 0 0 Z " fill="#AA94F1" transform="translate(281,260)"/>
<path d="M0 0 C0.66 0 1.32 0 2 0 C2.25 7.625 2.25 7.625 0 11 C-3.4375 11.4375 -3.4375 11.4375 -7 11 C-8.9375 9.375 -8.9375 9.375 -10 7 C-10.1875 3.75 -10.1875 3.75 -10 1 C-9.67 1 -9.34 1 -9 1 C-8.34 3.31 -7.68 5.62 -7 8 C-4.69 8 -2.38 8 0 8 C0 5.36 0 2.72 0 0 Z " fill="#937EDB" transform="translate(153,296)"/>
<path d="M0 0 C0.33 0.99 0.66 1.98 1 3 C0.67 3.66 0.34 4.32 0 5 C-5.28 5 -10.56 5 -16 5 C-16 4.01 -16 3.02 -16 2 C-10.72 2 -5.44 2 0 2 C0 1.34 0 0.68 0 0 Z " fill="#B09EF7" transform="translate(309,291)"/>
<path d="M0 0 C-0.19140625 1.82421875 -0.19140625 1.82421875 -1 4 C-3.21484375 5.51953125 -3.21484375 5.51953125 -5.9375 6.8125 C-6.83339844 7.25207031 -7.72929687 7.69164062 -8.65234375 8.14453125 C-9.42707031 8.42683594 -10.20179688 8.70914062 -11 9 C-11.66 8.67 -12.32 8.34 -13 8 C-11.59466816 6.65472507 -10.17527548 5.3241269 -8.75 4 C-7.96109375 3.2575 -7.1721875 2.515 -6.359375 1.75 C-4 0 -4 0 0 0 Z " fill="#909FBA" transform="translate(242,257)"/>
<path d="M0 0 C0.33 0 0.66 0 1 0 C2.125 5.625 2.125 5.625 1 9 C0.85284801 10.62567079 0.75278133 12.25586857 0.68359375 13.88671875 C0.64169922 14.82451172 0.59980469 15.76230469 0.55664062 16.72851562 C0.51732422 17.70498047 0.47800781 18.68144531 0.4375 19.6875 C0.39431641 20.67556641 0.35113281 21.66363281 0.30664062 22.68164062 C0.20058346 25.12095546 0.09852286 27.56037113 0 30 C-0.33 30 -0.66 30 -1 30 C-1.02909769 25.93751511 -1.04683174 21.87505714 -1.0625 17.8125 C-1.07087891 16.66201172 -1.07925781 15.51152344 -1.08789062 14.32617188 C-1.09111328 13.21435547 -1.09433594 12.10253906 -1.09765625 10.95703125 C-1.10289307 9.93585205 -1.10812988 8.91467285 -1.11352539 7.86254883 C-1.00519467 5.13098384 -0.61706868 2.65830626 0 0 Z " fill="#9FB0C6" transform="translate(172,249)"/>
<path d="M0 0 C1.32 0.33 2.64 0.66 4 1 C4 2.98 4 4.96 4 7 C2.68 7.33 1.36 7.66 0 8 C-1.125 6.25 -1.125 6.25 -2 4 C-1.125 1.75 -1.125 1.75 0 0 Z " fill="#BAC2E5" transform="translate(247,148)"/>
<path d="M0 0 C1.28278071 2.56556142 0.93633937 4.03928737 0.625 6.875 C0.53476563 7.73867188 0.44453125 8.60234375 0.3515625 9.4921875 C0.03874676 11.72360645 -0.40435454 13.82942758 -1 16 C-3.50009087 13.49990913 -3.29712739 12.5787141 -3.3125 9.125 C-3.32925781 8.26132812 -3.34601563 7.39765625 -3.36328125 6.5078125 C-2.93757021 3.56903308 -1.94053466 2.20166201 0 0 Z " fill="#937FDD" transform="translate(140,291)"/>
<path d="M0 0 C3.375 2 3.375 2 6 4 C5.01 4.33 4.02 4.66 3 5 C2.01 4.34 1.02 3.68 0 3 C-2.75387627 2.97522641 -2.75387627 2.97522641 -5.6875 3.375 C-6.68136719 3.48585937 -7.67523438 3.59671875 -8.69921875 3.7109375 C-9.45847656 3.80632812 -10.21773438 3.90171875 -11 4 C-7.43363078 0.27152309 -5.24493402 -0.50432058 0 0 Z " fill="#937FD2" transform="translate(381,130)"/>
<path d="M0 0 C0.99 0.66 1.98 1.32 3 2 C1.4722133 5.43752007 -0.50181056 8.18953688 -3 11 C-3.66 11 -4.32 11 -5 11 C-3.25 4.25 -3.25 4.25 -1 2 C-0.67 1.34 -0.34 0.68 0 0 Z " fill="#9EABC6" transform="translate(251,254)"/>
<path d="M0 0 C5.19209404 -0.21192221 9.126739 0.4087311 14 2 C10.86501708 3.85776765 8.62528568 4.20140476 5 4 C5 3.34 5 2.68 5 2 C3.02 2 1.04 2 -1 2 C-0.67 1.34 -0.34 0.68 0 0 Z " fill="#9089BB" transform="translate(224,138)"/>
<path d="M0 0 C1.21236328 0.04060547 1.21236328 0.04060547 2.44921875 0.08203125 C3.06410156 0.11683594 3.67898438 0.15164062 4.3125 0.1875 C4.6425 1.5075 4.9725 2.8275 5.3125 4.1875 C4.3225 3.5275 3.3325 2.8675 2.3125 2.1875 C-0.22957971 1.85406449 -0.22957971 1.85406449 -2.6875 2.1875 C-4.63966435 4.13966435 -5.53576645 5.71949953 -6.6875 8.1875 C-7.375 5.875 -7.375 5.875 -7.6875 3.1875 C-5.4587174 0.07893479 -3.70889568 -0.16125633 0 0 Z " fill="#BBA4E8" transform="translate(367.6875,201.8125)"/>
<path d="M0 0 C0 0.66 0 1.32 0 2 C6.27 2 12.54 2 19 2 C19 2.33 19 2.66 19 3 C10.75 3 2.5 3 -6 3 C-2 0 -2 0 0 0 Z " fill="#B5C8E3" transform="translate(325,210)"/>
<path d="M0 0 C0.66 0 1.32 0 2 0 C2.33 3.3 2.66 6.6 3 10 C2.01 10 1.02 10 0 10 C-1.36952673 7.26094655 -1.12621361 5.02912668 -1 2 C-0.67 1.34 -0.34 0.68 0 0 Z " fill="#C9B2FD" transform="translate(140,295)"/>
<path d="M0 0 C-6.48343811 2.63096039 -12.02330843 3.39325819 -19 3 C-19 2.67 -19 2.34 -19 2 C-16.58525383 1.46839543 -14.16891893 0.94945234 -11.75 0.4375 C-11.06808594 0.28603516 -10.38617188 0.13457031 -9.68359375 -0.02148438 C-6.18230962 -0.75233495 -3.39701827 -1.32203546 0 0 Z " fill="#8670CE" transform="translate(233,292)"/>
<path d="M0 0 C0 0.66 0 1.32 0 2 C-1.99330842 3.34331654 -3.99384866 4.67594012 -6 6 C-6.66 6.99 -7.32 7.98 -8 9 C-8.8125 7.3125 -8.8125 7.3125 -9 5 C-5.02272727 0 -5.02272727 0 0 0 Z " fill="#E5D6FD" transform="translate(367,199)"/>
<path d="M0 0 C1.31677734 0.00580078 1.31677734 0.00580078 2.66015625 0.01171875 C4.9375 0.3125 4.9375 0.3125 6.9375 2.3125 C3.9375 3.3125 3.9375 3.3125 0.5625 2.8125 C-2.76472855 2.35357192 -4.86845544 2.44139694 -8.0625 3.3125 C-5.58508301 0.21368469 -3.90186952 -0.07470442 0 0 Z " fill="#9E8AE7" transform="translate(149.0625,287.6875)"/>
<path d="M0 0 C0.33 0.99 0.66 1.98 1 3 C1.66 2.67 2.32 2.34 3 2 C1.50902342 5.7952131 -0.75700849 7.61042731 -4 10 C-4 5.28093812 -2.71245796 3.72962969 0 0 Z " fill="#9FAFC7" transform="translate(260,230)"/>
<path d="M0 0 C1.670625 0.061875 1.670625 0.061875 3.375 0.125 C3.375 0.455 3.375 0.785 3.375 1.125 C1.395 1.785 -0.585 2.445 -2.625 3.125 C-2.625 5.105 -2.625 7.085 -2.625 9.125 C-3.615 9.125 -4.605 9.125 -5.625 9.125 C-5.75 5.75 -5.75 5.75 -5.625 2.125 C-3.625 0.125 -3.625 0.125 0 0 Z " fill="#A490DD" transform="translate(376.625,136.875)"/>
<path d="M0 0 C0.33 0.66 0.66 1.32 1 2 C1.99 2 2.98 2 4 2 C4 3.32 4 4.64 4 6 C1.36 6.33 -1.28 6.66 -4 7 C-3.525625 6.5875 -3.05125 6.175 -2.5625 5.75 C-0.83733482 3.817815 -0.43415125 2.51807725 0 0 Z " fill="#C6C2F0" transform="translate(251,150)"/>
<path d="M0 0 C0.66 0 1.32 0 2 0 C2 4.95 2 9.9 2 15 C1.67 15 1.34 15 1 15 C0.67 11.37 0.34 7.74 0 4 C-0.99 4 -1.98 4 -3 4 C-1.625 2 -1.625 2 0 0 Z " fill="#130E1D" transform="translate(279,265)"/>
<path d="M0 0 C2.02054804 1.64169528 4.02043058 3.30911778 6 5 C6 5.33 6 5.66 6 6 C3.69 5.67 1.38 5.34 -1 5 C-1 2 -1 2 0 0 Z " fill="#BDACEC" transform="translate(262,156)"/>
<path d="M0 0 C9.59453303 1.55808656 9.59453303 1.55808656 13 6 C10.6875 6.1875 10.6875 6.1875 8 6 C6.5 4.625 6.5 4.625 5 3 C2.40084462 1.80972016 2.40084462 1.80972016 0 1 C0 0.67 0 0.34 0 0 Z " fill="#B3A2EE" transform="translate(244,146)"/>
<path d="M0 0 C-1.75 2.0625 -1.75 2.0625 -4 4 C-6.1875 3.875 -6.1875 3.875 -8 3 C-8.33 2.34 -8.66 1.68 -9 1 C-5.64919071 -1.10976881 -3.77897651 -1.0497157 0 0 Z " fill="#7C8A9D" transform="translate(233,265)"/>
<path d="M0 0 C1.32 0.66 2.64 1.32 4 2 C3.34 2.66 2.68 3.32 2 4 C1.01 3.67 0.02 3.34 -1 3 C-0.67 2.01 -0.34 1.02 0 0 Z M1 4 C1.66 4.99 2.32 5.98 3 7 C2.01 7.66 1.02 8.32 0 9 C0 5 0 5 1 4 Z " fill="#E6D2FE" transform="translate(262,161)"/>
<path d="M0 0 C4.29 0.66 8.58 1.32 13 2 C11 4 11 4 8.1875 4.3125 C4.66597409 3.96725236 2.82757446 3.07909887 0 1 C0 0.67 0 0.34 0 0 Z " fill="#9D88D8" transform="translate(370,151)"/>
<path d="M0 0 C0.33 0 0.66 0 1 0 C1.125 3.375 1.125 3.375 1 7 C-1.76223278 9.76223278 -4.20706617 9.57856291 -8 10 C-8.33 8.68 -8.66 7.36 -9 6 C-6.69 6.33 -4.38 6.66 -2 7 C-1.34 4.69 -0.68 2.38 0 0 Z " fill="#9C87D0" transform="translate(383,140)"/>
<path d="M0 0 C0.99 0.33 1.98 0.66 3 1 C2.34 2.65 1.68 4.3 1 6 C0.01 6 -0.98 6 -2 6 C-2 4.35 -2 2.7 -2 1 C-1.34 0.67 -0.68 0.34 0 0 Z " fill="#ABBEDE" transform="translate(244,147)"/>
<path d="M0 0 C0 0.99 0 1.98 0 3 C-2.5 5.1875 -2.5 5.1875 -5 7 C-5.66 6.67 -6.32 6.34 -7 6 C-6.1875 3.5625 -6.1875 3.5625 -5 1 C-2 0 -2 0 0 0 Z " fill="#707C97" transform="translate(244,264)"/>
<path d="M0 0 C0.99 0 1.98 0 3 0 C1.8141763 3.37503669 0.72426311 5.64722731 -2 8 C-2.66 7.67 -3.32 7.34 -4 7 C-2.68 4.69 -1.36 2.38 0 0 Z " fill="#BBC9E4" transform="translate(276,225)"/>
<path d="M0 0 C1.98 0.99 1.98 0.99 4 2 C3.67 3.32 3.34 4.64 3 6 C2.01 5.67 1.02 5.34 0 5 C0 3.35 0 1.7 0 0 Z M-2 4 C-1.34 4.66 -0.68 5.32 0 6 C-0.66 6 -1.32 6 -2 6 C-2 5.34 -2 4.68 -2 4 Z " fill="#BCCDE9" transform="translate(279,217)"/>
<path d="M0 0 C0.33 1.32 0.66 2.64 1 4 C-1.31 4 -3.62 4 -6 4 C-6.33 3.34 -6.66 2.68 -7 2 C-4.69 1.34 -2.38 0.68 0 0 Z " fill="#A58FD9" transform="translate(372,211)"/>
<path d="M0 0 C2 1.5625 2 1.5625 4 4 C4.25 7.75 4.25 7.75 4 11 C3.67 11 3.34 11 3 11 C3 9.35 3 7.7 3 6 C2.34 6 1.68 6 1 6 C0.67 4.02 0.34 2.04 0 0 Z " fill="#8F7CBE" transform="translate(376,200)"/>
<path d="M0 0 C0 3.51716303 -0.82445585 4.37121748 -3 7 C-4.32 6.67 -5.64 6.34 -7 6 C-4.69 4.02 -2.38 2.04 0 0 Z " fill="#9680E1" transform="translate(255,276)"/>
<path d="M0 0 C-2.33214148 1.20628008 -4.49642139 2.1654738 -7 3 C-7 3.66 -7 4.32 -7 5 C-7.66 5 -8.32 5 -9 5 C-8.6875 3.0625 -8.6875 3.0625 -8 1 C-5.07175348 0.02391783 -3.04386724 -0.08226668 0 0 Z " fill="#C9BAF2" transform="translate(367,198)"/>
</svg>
